<svg aria-hidden="true" style="position: absolute; width: 0; height: 0; overflow: hidden;" version="1.1" xmlns="http://www.w3.org/2000/svg" xmlns:xlink="http://www.w3.org/1999/xlink">
<defs>
<symbol id="icon-clear" viewBox="0 0 24 24">
<path d="M18.984 6.422l-5.578 5.578 5.578 5.578-1.406 1.406-5.578-5.578-5.578 5.578-1.406-1.406 5.578-5.578-5.578-5.578 1.406-1.406 5.578 5.578 5.578-5.578z"></path>
</symbol>
<symbol id="mongodb"  viewBox="0 0 24 24" ><path fill="#FFF" d="m12.546 24-.639-.218s.078-3.257-1.091-3.491c-.779-.904.125-38.338 2.93-.125 0 0-.966.483-1.138 1.309-.186.811-.062 2.525-.062 2.525z"></path><path fill="#A6A385" d="m12.546 24-.639-.218s.078-3.257-1.091-3.491c-.779-.904.125-38.338 2.93-.125 0 0-.966.483-1.138 1.309-.186.811-.062 2.525-.062 2.525z"></path><path fill="#FFF" d="M12.889 20.852s5.595-3.678 4.286-11.33c-1.262-5.563-4.239-7.387-4.566-8.088-.358-.499-.701-1.371-.701-1.371l.234 15.475c-.001.015-.484 4.737.747 5.314z"></path><path fill="#499D4A" d="M12.889 20.852s5.595-3.678 4.286-11.33c-1.262-5.563-4.239-7.387-4.566-8.088-.358-.499-.701-1.371-.701-1.371l.234 15.475c-.001.015-.484 4.737.747 5.314z"></path><path fill="#FFF" d="M11.58 21.054s-5.252-3.584-4.94-9.896c.296-6.312 4.005-9.413 4.722-9.974.468-.498.483-.685.514-1.184.327.701.265 10.488.312 11.641.14 4.442-.249 8.572-.608 9.413z"></path><path fill="#58AA50" d="M11.58 21.054s-5.252-3.584-4.94-9.896c.296-6.312 4.005-9.413 4.722-9.974.468-.498.483-.685.514-1.184.327.701.265 10.488.312 11.641.14 4.442-.249 8.572-.608 9.413z"></path></symbol>
<symbol id="express"  viewBox="0 0 48 48" width="96px" height="96px" baseProfile="basic"><path fill="#212121" d="M23.697,37.56h1.18c0.84,0,1.631-0.392,2.139-1.061l7.485-9.847l7.485,9.847	c0.508,0.668,1.299,1.061,2.139,1.061h1.18L35.756,25l9.121-12h-1.18c-0.84,0-1.631,0.392-2.139,1.061L34.5,23.347l-7.059-9.287	C26.933,13.392,26.142,13,25.302,13h-1.18l9.121,12L23.697,37.56z"/><path fill="#212121" d="M24,26v-3c0-6.675-5.945-11.961-12.829-10.852C5.812,13.011,2,17.857,2,23.284L2,24v2v0.142	c0,6.553,4.777,11.786,10.868,11.858c5.092,0.06,9.389-3.344,10.707-7.999h-1.028c-0.62,0-1.182,0.355-1.451,0.913	c-1.739,3.595-5.789,5.862-10.228,4.842C6.776,34.815,4,30.981,4,26.783V26H24z M4,23.71c0-4.708,2.804-8.557,6.924-9.478	C16.798,12.92,22,17.352,22,23v1H4V23.71z"/></symbol>
<symbol id="react"  viewBox="0 0 48 48" width="96px" height="96px"><path fill="#80deea" d="M24,34C11.1,34,1,29.6,1,24c0-5.6,10.1-10,23-10c12.9,0,23,4.4,23,10C47,29.6,36.9,34,24,34z M24,16	c-12.6,0-21,4.1-21,8c0,3.9,8.4,8,21,8s21-4.1,21-8C45,20.1,36.6,16,24,16z"/><path fill="#80deea" d="M15.1,44.6c-1,0-1.8-0.2-2.6-0.7C7.6,41.1,8.9,30.2,15.3,19l0,0c3-5.2,6.7-9.6,10.3-12.4c3.9-3,7.4-3.9,9.8-2.5	c2.5,1.4,3.4,4.9,2.8,9.8c-0.6,4.6-2.6,10-5.6,15.2c-3,5.2-6.7,9.6-10.3,12.4C19.7,43.5,17.2,44.6,15.1,44.6z M32.9,5.4	c-1.6,0-3.7,0.9-6,2.7c-3.4,2.7-6.9,6.9-9.8,11.9l0,0c-6.3,10.9-6.9,20.3-3.6,22.2c1.7,1,4.5,0.1,7.6-2.3c3.4-2.7,6.9-6.9,9.8-11.9	c2.9-5,4.8-10.1,5.4-14.4c0.5-4-0.1-6.8-1.8-7.8C34,5.6,33.5,5.4,32.9,5.4z"/><path fill="#80deea" d="M33,44.6c-5,0-12.2-6.1-17.6-15.6C8.9,17.8,7.6,6.9,12.5,4.1l0,0C17.4,1.3,26.2,7.8,32.7,19	c3,5.2,5,10.6,5.6,15.2c0.7,4.9-0.3,8.3-2.8,9.8C34.7,44.4,33.9,44.6,33,44.6z M13.5,5.8c-3.3,1.9-2.7,11.3,3.6,22.2	c6.3,10.9,14.1,16.1,17.4,14.2c1.7-1,2.3-3.8,1.8-7.8c-0.6-4.3-2.5-9.4-5.4-14.4C24.6,9.1,16.8,3.9,13.5,5.8L13.5,5.8z"/><circle cx="24" cy="24" r="4" fill="#80deea"/></symbol>
<symbol id="javascript"  viewBox="0 0 48 48" width="96px" height="96px"><path fill="#ffd600" d="M6,42V6h36v36H6z"/><path fill="#000001" d="M29.538 32.947c.692 1.124 1.444 2.201 3.037 2.201 1.338 0 2.04-.665 2.04-1.585 0-1.101-.726-1.492-2.198-2.133l-.807-.344c-2.329-.988-3.878-2.226-3.878-4.841 0-2.41 1.845-4.244 4.728-4.244 2.053 0 3.528.711 4.592 2.573l-2.514 1.607c-.553-.988-1.151-1.377-2.078-1.377-.946 0-1.545.597-1.545 1.377 0 .964.6 1.354 1.985 1.951l.807.344C36.452 29.645 38 30.839 38 33.523 38 36.415 35.716 38 32.65 38c-2.999 0-4.702-1.505-5.65-3.368L29.538 32.947zM17.952 33.029c.506.906 1.275 1.603 2.381 1.603 1.058 0 1.667-.418 1.667-2.043V22h3.333v11.101c0 3.367-1.953 4.899-4.805 4.899-2.577 0-4.437-1.746-5.195-3.368L17.952 33.029z"/></symbol>
<symbol id="sass"  viewBox="0 0 48 48" width="96px" height="96px"><path fill="#f06292" d="M39.867,25.956c-1.538,0.008-2.87,0.377-3.986,0.928c-0.408-0.815-0.822-1.532-0.891-2.065	c-0.081-0.622-0.175-0.994-0.077-1.735c0.098-0.741,0.527-1.791,0.521-1.87c-0.006-0.079-0.096-0.456-0.983-0.463	c-0.887-0.006-1.646,0.171-1.735,0.405c-0.089,0.234-0.26,0.761-0.366,1.311c-0.155,0.804-1.771,3.673-2.688,5.173	c-0.3-0.586-0.555-1.102-0.608-1.51c-0.081-0.622-0.175-0.994-0.077-1.735c0.098-0.741,0.527-1.791,0.521-1.87	c-0.006-0.079-0.096-0.456-0.983-0.463c-0.887-0.006-1.646,0.171-1.735,0.405c-0.089,0.234-0.185,0.781-0.366,1.311	c-0.182,0.529-2.329,5.314-2.892,6.555c-0.287,0.632-0.536,1.14-0.712,1.486c-0.001-0.001-0.001-0.002-0.001-0.002	s-0.011,0.023-0.029,0.062c-0.151,0.295-0.24,0.458-0.24,0.458s0.001,0.002,0.003,0.006c-0.12,0.217-0.248,0.418-0.311,0.418	c-0.044,0-0.133-0.577,0.019-1.369c0.32-1.66,1.087-4.248,1.08-4.338c-0.004-0.046,0.143-0.497-0.501-0.733	c-0.626-0.229-0.849,0.153-0.906,0.154c-0.055,0.001-0.096,0.135-0.096,0.135s0.697-2.911-1.33-2.911	c-1.268,0-3.024,1.387-3.889,2.644c-0.546,0.298-1.715,0.936-2.954,1.617c-0.476,0.262-0.962,0.529-1.423,0.783	c-0.031-0.035-0.063-0.069-0.095-0.104c-2.459-2.623-7.003-4.478-6.811-8.005c0.07-1.282,0.516-4.658,8.733-8.752	c6.731-3.354,12.12-2.431,13.051-0.386c1.33,2.923-2.88,8.354-9.87,9.138c-2.663,0.299-4.066-0.734-4.415-1.118	c-0.367-0.405-0.422-0.423-0.559-0.347c-0.223,0.124-0.082,0.481,0,0.694c0.209,0.543,1.065,1.506,2.525,1.986	c1.285,0.422,4.412,0.653,8.193-0.81c4.236-1.638,7.543-6.196,6.571-10.005c-0.988-3.874-7.412-5.148-13.492-2.988	C12.44,9.332,8.523,11.35,5.706,13.984c-3.349,3.132-3.883,5.859-3.663,6.998c0.782,4.048,6.361,6.684,8.595,8.637	c-0.11,0.061-0.214,0.118-0.308,0.17c-1.12,0.554-5.373,2.78-6.437,5.131c-1.207,2.667,0.192,4.581,1.118,4.839	c2.869,0.798,5.813-0.638,7.396-2.998c1.582-2.359,1.389-5.432,0.663-6.834c-0.009-0.017-0.019-0.034-0.028-0.052	c0.289-0.171,0.584-0.345,0.876-0.517c0.57-0.335,1.13-0.647,1.615-0.911c-0.272,0.744-0.471,1.637-0.574,2.926	c-0.122,1.514,0.499,3.471,1.311,4.241c0.358,0.339,0.788,0.347,1.06,0.347c0.945,0,1.376-0.786,1.851-1.716	c0.582-1.14,1.099-2.468,1.099-2.468s-0.648,3.586,1.118,3.586c0.644,0,1.291-0.835,1.58-1.26c0.001,0.005,0.001,0.007,0.001,0.007	s0.017-0.028,0.05-0.083c0.067-0.102,0.105-0.167,0.105-0.167s0.001-0.007,0.003-0.019c0.259-0.449,0.833-1.473,1.693-3.162	c1.112-2.182,2.178-4.916,2.178-4.916s0.099,0.668,0.424,1.774c0.191,0.65,0.597,1.369,0.918,2.059	c-0.258,0.358-0.416,0.563-0.416,0.563s0.001,0.004,0.004,0.011c-0.206,0.274-0.437,0.569-0.679,0.857	c-0.878,1.045-1.923,2.239-2.063,2.583c-0.165,0.406-0.126,0.704,0.193,0.945c0.233,0.175,0.647,0.203,1.08,0.174	c0.789-0.053,1.343-0.249,1.617-0.368c0.427-0.151,0.924-0.388,1.39-0.731c0.861-0.633,1.38-1.538,1.33-2.738	c-0.028-0.661-0.238-1.316-0.505-1.934c0.078-0.112,0.156-0.226,0.235-0.34c1.357-1.984,2.41-4.164,2.41-4.164	s0.099,0.668,0.424,1.774c0.164,0.559,0.489,1.17,0.781,1.768c-1.276,1.037-2.067,2.242-2.342,3.032	c-0.508,1.462-0.11,2.124,0.636,2.275c0.338,0.068,0.816-0.087,1.175-0.239c0.447-0.148,0.984-0.395,1.486-0.764	c0.861-0.633,1.689-1.519,1.639-2.718c-0.023-0.546-0.171-1.088-0.372-1.608c1.082-0.451,2.482-0.701,4.266-0.493	c3.827,0.447,4.577,2.836,4.434,3.836c-0.144,1-0.946,1.55-1.215,1.716c-0.268,0.166-0.35,0.224-0.328,0.347	c0.033,0.179,0.157,0.173,0.386,0.134c0.315-0.053,2.009-0.813,2.082-2.659C46.089,28.509,43.844,25.935,39.867,25.956z M10.37,35.9	c-1.268,1.383-3.038,1.905-3.798,1.465c-0.82-0.475-0.495-2.511,1.06-3.979c0.948-0.894,2.172-1.718,2.984-2.225	c0.185-0.111,0.456-0.274,0.786-0.472c0.055-0.031,0.086-0.048,0.086-0.048l-0.001-0.002c0.064-0.038,0.129-0.077,0.196-0.118	C12.25,32.61,11.701,34.449,10.37,35.9z M19.605,29.623c-0.441,1.076-1.365,3.83-1.928,3.682c-0.483-0.127-0.777-2.22-0.096-4.28	c0.342-1.037,1.074-2.276,1.504-2.757c0.692-0.774,1.454-1.027,1.639-0.713C20.959,25.955,19.882,28.948,19.605,29.623z M27.234,33.263c-0.187,0.098-0.359,0.159-0.438,0.112c-0.059-0.035,0.077-0.164,0.077-0.164s0.954-1.027,1.33-1.494	c0.219-0.272,0.472-0.595,0.748-0.955c0.002,0.036,0.003,0.072,0.003,0.107C28.952,32.099,27.764,32.929,27.234,33.263z M33.111,31.923c-0.14-0.099-0.116-0.42,0.343-1.421c0.18-0.393,0.592-1.054,1.306-1.686c0.083,0.26,0.133,0.509,0.132,0.741	C34.883,31.105,33.779,31.683,33.111,31.923z"/></symbol>
<symbol id="css3"  viewBox="0 0 48 48" width="96px" height="96px"><path fill="#0277BD" d="M41,5H7l3,34l14,4l14-4L41,5L41,5z"/><path fill="#039BE5" d="M24 8L24 39.9 35.2 36.7 37.7 8z"/><path fill="#FFF" d="M33.1 13L24 13 24 17 28.9 17 28.6 21 24 21 24 25 28.4 25 28.1 29.5 24 30.9 24 35.1 31.9 32.5 32.6 21 32.6 21z"/><path fill="#EEE" d="M24,13v4h-8.9l-0.3-4H24z M19.4,21l0.2,4H24v-4H19.4z M19.8,27h-4l0.3,5.5l7.9,2.6v-4.2l-4.1-1.4L19.8,27z"/></symbol>
<symbol id="html5"  viewBox="0 0 48 48" width="96px" height="96px"><path fill="#E65100" d="M41,5H7l3,34l14,4l14-4L41,5L41,5z"/><path fill="#FF6D00" d="M24 8L24 39.9 35.2 36.7 37.7 8z"/><path fill="#FFF" d="M24,25v-4h8.6l-0.7,11.5L24,35.1v-4.2l4.1-1.4l0.3-4.5H24z M32.9,17l0.3-4H24v4H32.9z"/><path fill="#EEE" d="M24,30.9v4.2l-7.9-2.6L15.7,27h4l0.2,2.5L24,30.9z M19.1,17H24v-4h-9.1l0.7,12H24v-4h-4.6L19.1,17z"/></symbol>
<symbol id="nodejs"  viewBox="0 0 48 48" width="96px" height="96px"><path fill="#388e3c" d="M17.204 19.122l-4.907 2.715C12.113 21.938 12 22.126 12 22.329v5.433c0 .203.113.39.297.492l4.908 2.717c.183.101.41.101.593 0l4.907-2.717C22.887 28.152 23 27.965 23 27.762v-5.433c0-.203-.113-.39-.297-.492l-4.906-2.715c-.092-.051-.195-.076-.297-.076-.103 0-.205.025-.297.076M42.451 24.013l-.818.452c-.031.017-.049.048-.049.082v.906c0 .034.019.065.049.082l.818.453c.031.017.068.017.099 0l.818-.453c.03-.017.049-.048.049-.082v-.906c0-.034-.019-.065-.05-.082l-.818-.452C42.534 24.004 42.517 24 42.5 24S42.466 24.004 42.451 24.013"/><path fill="#37474f" d="M35.751,13.364l-2.389-1.333c-0.075-0.042-0.167-0.041-0.241,0.003 c-0.074,0.044-0.12,0.123-0.12,0.209L33,20.295l-2.203-1.219C30.705,19.025,30.602,19,30.5,19c-0.102,0-0.205,0.025-0.297,0.076 h0.001l-4.907,2.715C25.113,21.892,25,22.08,25,22.282v5.433c0,0.203,0.113,0.39,0.297,0.492l4.908,2.717 c0.183,0.101,0.41,0.101,0.593,0l4.907-2.717C35.887,28.106,36,27.918,36,27.715V13.788C36,13.612,35.904,13.45,35.751,13.364z M32.866,26.458l-2.23,1.235c-0.083,0.046-0.186,0.046-0.269,0l-2.231-1.235C28.051,26.412,28,26.326,28,26.234v-2.47 c0-0.092,0.051-0.177,0.135-0.224l2.231-1.234h-0.001c0.042-0.023,0.088-0.034,0.135-0.034c0.047,0,0.093,0.012,0.135,0.034 l2.23,1.234C32.949,23.587,33,23.673,33,23.765v2.47C33,26.326,32.949,26.412,32.866,26.458z"/><path fill="#2e7d32" d="M17.204,19.122L12,27.762c0,0.203,0.113,0.39,0.297,0.492l4.908,2.717 c0.183,0.101,0.41,0.101,0.593,0L23,22.329c0-0.203-0.113-0.39-0.297-0.492l-4.906-2.715c-0.092-0.051-0.195-0.076-0.297-0.076 c-0.103,0-0.205,0.025-0.297,0.076"/><path fill="#4caf50" d="M17.204,19.122l-4.907,2.715C12.113,21.938,12,22.126,12,22.329l5.204,8.642 c0.183,0.101,0.41,0.101,0.593,0l4.907-2.717C22.887,28.152,23,27.965,23,27.762l-5.203-8.64c-0.092-0.051-0.195-0.076-0.297-0.076 c-0.103,0-0.205,0.025-0.297,0.076"/><path fill="#37474f" d="M47.703 21.791l-4.906-2.715C42.705 19.025 42.602 19 42.5 19c-.102 0-.205.025-.297.076h.001l-4.907 2.715C37.114 21.892 37 22.084 37 22.294v5.411c0 .209.114.402.297.503l4.908 2.717c.184.102.409.102.593 0l2.263-1.253c.207-.115.206-.412-.002-.526l-4.924-2.687C40.052 26.412 40 26.325 40 26.231v-2.466c0-.092.05-.177.13-.221l2.235-1.236h-.001c.042-.023.088-.034.135-.034.047 0 .093.012.135.034l2.235 1.237c.08.044.13.129.13.221v2.012c0 .086.046.166.121.209.075.042.167.042.242-.001l2.398-1.393c.148-.086.24-.245.24-.417v-1.88C48 22.085 47.886 21.892 47.703 21.791zM10.703 21.791l-4.906-2.715C5.705 19.025 5.602 19 5.5 19c-.102 0-.205.025-.297.076h.001l-4.907 2.715C.114 21.892 0 22.084 0 22.294v7.465c0 .086.046.166.121.209.075.042.167.042.242-.001l2.398-1.393C2.909 28.488 3 28.329 3 28.157v-4.393c0-.092.05-.177.13-.221l2.235-1.236H5.365c.042-.023.088-.034.135-.034.047 0 .093.012.135.034l2.235 1.237C7.95 23.588 8 23.673 8 23.765v4.393c0 .172.091.331.24.417l2.398 1.393c.075.043.167.043.242.001C10.954 29.925 11 29.845 11 29.759v-7.464C11 22.085 10.886 21.892 10.703 21.791z"/></symbol>
<symbol id="icon-user" viewBox="0 0 32 32">
<path d="M18 22.082v-1.649c2.203-1.241 4-4.337 4-7.432 0-4.971 0-9-6-9s-6 4.029-6 9c0 3.096 1.797 6.191 4 7.432v1.649c-6.784 0.555-12 3.888-12 7.918h28c0-4.030-5.216-7.364-12-7.918z"></path>
</symbol>
<symbol id="icon-home" viewBox="0 0 32 32">
<path d="M32 18.451l-16-12.42-16 12.42v-5.064l16-12.42 16 12.42zM28 18v12h-8v-8h-8v8h-8v-12l12-9z"></path>
</symbol>
<symbol id="icon-info" viewBox="0 0 32 32">
<path d="M14 9.5c0-0.825 0.675-1.5 1.5-1.5h1c0.825 0 1.5 0.675 1.5 1.5v1c0 0.825-0.675 1.5-1.5 1.5h-1c-0.825 0-1.5-0.675-1.5-1.5v-1z"></path>
<path d="M20 24h-8v-2h2v-6h-2v-2h6v8h2z"></path>
<path d="M16 0c-8.837 0-16 7.163-16 16s7.163 16 16 16 16-7.163 16-16-7.163-16-16-16zM16 29c-7.18 0-13-5.82-13-13s5.82-13 13-13 13 5.82 13 13-5.82 13-13 13z"></path>
</symbol>
<symbol id="icon-clipboard" viewBox="0 0 32 32">
<path d="M29 4h-9c0-2.209-1.791-4-4-4s-4 1.791-4 4h-9c-0.552 0-1 0.448-1 1v26c0 0.552 0.448 1 1 1h26c0.552 0 1-0.448 1-1v-26c0-0.552-0.448-1-1-1zM16 2c1.105 0 2 0.895 2 2s-0.895 2-2 2c-1.105 0-2-0.895-2-2s0.895-2 2-2zM28 30h-24v-24h4v3c0 0.552 0.448 1 1 1h14c0.552 0 1-0.448 1-1v-3h4v24z"></path>
<path d="M14 26.828l-6.414-7.414 1.828-1.828 4.586 3.586 8.586-7.586 1.829 1.828z"></path>
</symbol>
<symbol id="icon-cart" viewBox="0 0 32 32">
<path d="M31.914 5.4l-2.914 11.6c0 0.139-0.028 0.27-0.078 0.389-0.102 0.24-0.293 0.432-0.532 0.533-0.12 0.051-0.252 0.078-0.39 0.078h-19l0.8 4h17.2c0.553 0 1 0.447 1 1s-0.447 1-1 1h-18c-0.553 0-1-0.447-1-1l-3.8-19h-3.2c-0.552 0-1-0.448-1-1s0.448-1 1-1h4c0.553 0 1 0.448 1 1l0.2 1h24.8c0.553 0 1 0.448 1 1 0 0.143-0.032 0.277-0.086 0.4zM8.6 16h3.4v-10h-5.4l2 10zM18 6h-5v10h5v-10zM24 6h-5v10h5v-10zM25 6v10h2.253l2.533-10h-4.786zM11 26c1.657 0 3 1.344 3 3s-1.343 3-3 3-3-1.344-3-3 1.343-3 3-3zM11 30c0.553 0 1-0.447 1-1s-0.447-1-1-1-1 0.447-1 1 0.447 1 1 1zM25 26c1.657 0 3 1.344 3 3s-1.343 3-3 3-3-1.344-3-3 1.343-3 3-3zM25 30c0.553 0 1-0.447 1-1s-0.447-1-1-1-1 0.447-1 1 0.447 1 1 1z"></path>
</symbol>
<symbol id="icon-thumb-down" viewBox="0 0 32 32">
<path d="M10 19h-6.002c-1.104 0-1.998-0.89-1.998-2v-13c0-1.105 0.887-2 1.998-2h19.494c1.385 0 2.508 1.11 2.508 2.5 0 0.563-0.185 1.082-0.499 1.5 1.381 0.005 2.499 1.113 2.499 2.5 0 0.636-0.236 1.216-0.628 1.657 0.951 0.353 1.628 1.263 1.628 2.343 0 0.636-0.236 1.216-0.628 1.657 0.951 0.353 1.628 1.263 1.628 2.343 0 1.381-1.115 2.5-2.508 2.5h-5.992c1.049 5.017 0.547 11-3.5 11s-1.934-4.788-3.5-7.763c-1.566-2.975-4.5-3.237-4.5-3.237v0 0zM3.991 18h5.009v-15h-5.009c-0.54 0-0.991 0.451-0.991 1.007v12.985c0 0.559 0.444 1.007 0.991 1.007zM6 5c0.552 0 1 0.448 1 1s-0.448 1-1 1c-0.552 0-1-0.448-1-1s0.448-1 1-1v0 0zM20.3 18h7.207c0.829 0 1.493-0.672 1.493-1.5 0-0.834-0.668-1.5-1.493-1.5h-3.507v-1h2.507c0.829 0 1.493-0.672 1.493-1.5 0-0.834-0.668-1.5-1.493-1.5h-3.507v-1h2.507c0.829 0 1.493-0.672 1.493-1.5 0-0.834-0.668-1.5-1.493-1.5h-3.507v-1h1.498c0.831 0 1.502-0.672 1.502-1.5 0-0.834-0.672-1.5-1.502-1.5h-13.498c0 0 0 13 0 15 1.5 0 2.806 1 2.806 1 0.91 0.568 1.896 1.428 2.565 2.699 1.566 2.975-0.242 7.301 2.629 7.301 2.96 0 3.448-4.853 2.501-10 0 0-0.201-1-0.201-1v0 0z"></path>
</symbol>
<symbol id="icon-thumb-up" viewBox="0 0 32 32">
<path d="M11 13h-6.002c-1.104 0-1.998 0.89-1.998 2v13c0 1.105 0.887 2 1.998 2h19.494c1.385 0 2.508-1.11 2.508-2.5 0-0.563-0.185-1.082-0.499-1.5 1.381-0.005 2.499-1.113 2.499-2.5 0-0.636-0.236-1.216-0.628-1.657 0.951-0.353 1.628-1.263 1.628-2.343 0-0.636-0.236-1.216-0.628-1.657 0.951-0.353 1.628-1.263 1.628-2.343 0-1.381-1.115-2.5-2.508-2.5h-5.992c1.049-5.017 0.547-11-3.5-11s-1.934 4.788-3.5 7.763c-1.566 2.975-4.5 3.237-4.5 3.237v0 0zM4.991 14h5.009v15h-5.009c-0.54 0-0.991-0.451-0.991-1.007v-12.985c0-0.559 0.444-1.007 0.991-1.007zM7 27c0.552 0 1-0.448 1-1s-0.448-1-1-1c-0.552 0-1 0.448-1 1s0.448 1 1 1v0 0zM21.3 14h7.207c0.829 0 1.493 0.672 1.493 1.5 0 0.834-0.668 1.5-1.493 1.5h-3.507v1h2.507c0.829 0 1.493 0.672 1.493 1.5 0 0.834-0.668 1.5-1.493 1.5h-3.507v1h2.507c0.829 0 1.493 0.672 1.493 1.5 0 0.834-0.668 1.5-1.493 1.5h-3.507v1h1.498c0.831 0 1.502 0.672 1.502 1.5 0 0.834-0.672 1.5-1.502 1.5h-13.498c0 0 0-13 0-15 1.5 0 2.806-1 2.806-1 0.91-0.568 1.896-1.428 2.565-2.699 1.566-2.975-0.242-7.301 2.629-7.301 2.96 0 3.448 4.853 2.501 10 0 0-0.201 1-0.201 1v0 0z"></path>
</symbol>
<symbol id="icon-trash" viewBox="0 0 32 32">
<path d="M29.98 6.819c-0.096-1.57-1.387-2.816-2.98-2.816h-3v-1.002c0-1.657-1.344-3-3-3h-10c-1.657 0-3 1.343-3 3v1.001h-3c-1.595 0-2.885 1.246-2.981 2.816h-0.019v2.183c0 1.104 0.896 2 2 2v0 17c0 2.209 1.791 4 4 4h16c2.209 0 4-1.791 4-4v-17c1.104 0 2-0.896 2-2v-2.182h-0.020zM10 3.002c0-0.553 0.447-1 1-1h10c0.553 0 1 0.447 1 1v1h-12v-1zM26 28.002c0 1.102-0.898 2-2 2h-16c-1.103 0-2-0.898-2-2v-17h20v17zM28 8.001v1h-24v-1.999c0-0.553 0.447-1 1-1h22c0.553 0 1 0.447 1 1v0.999zM9 28.006h2c0.553 0 1-0.447 1-1v-13c0-0.553-0.447-1-1-1h-2c-0.553 0-1 0.447-1 1v13c0 0.553 0.447 1 1 1zM9 14.005h2v13h-2v-13zM15 28.006h2c0.553 0 1-0.447 1-1v-13c0-0.553-0.447-1-1-1h-2c-0.553 0-1 0.447-1 1v13c0 0.553 0.447 1 1 1zM15 14.005h2v13h-2v-13zM21 28.006h2c0.553 0 1-0.447 1-1v-13c0-0.553-0.447-1-1-1h-2c-0.553 0-1 0.447-1 1v13c0 0.553 0.447 1 1 1zM21 14.005h2v13h-2v-13z"></path>
</symbol>
<symbol id="icon-equalizer" viewBox="0 0 32 32">
<path d="M14 4v-0.5c0-0.825-0.675-1.5-1.5-1.5h-5c-0.825 0-1.5 0.675-1.5 1.5v0.5h-6v4h6v0.5c0 0.825 0.675 1.5 1.5 1.5h5c0.825 0 1.5-0.675 1.5-1.5v-0.5h18v-4h-18zM8 8v-4h4v4h-4zM26 13.5c0-0.825-0.675-1.5-1.5-1.5h-5c-0.825 0-1.5 0.675-1.5 1.5v0.5h-18v4h18v0.5c0 0.825 0.675 1.5 1.5 1.5h5c0.825 0 1.5-0.675 1.5-1.5v-0.5h6v-4h-6v-0.5zM20 18v-4h4v4h-4zM14 23.5c0-0.825-0.675-1.5-1.5-1.5h-5c-0.825 0-1.5 0.675-1.5 1.5v0.5h-6v4h6v0.5c0 0.825 0.675 1.5 1.5 1.5h5c0.825 0 1.5-0.675 1.5-1.5v-0.5h18v-4h-18v-0.5zM8 28v-4h4v4h-4z"></path>
</symbol>


<symbol id="main-icon-farsi" viewBox="0 0 160 32">
<path fill-rule="evenodd" clip-rule="evenodd" d="M112.005 13C111.423 13 111.005 13.418 111.005 14V21C111.005 22.3628 110.368 23 109.005 23H100.007V15.5C100.007 11.2647 96.7428 8 92.5083 8H86.0096C85.4045 8 84.3749 8.01669 84.01 8.5L82.0104 11.5C81.6256 12.0092 81.8723 13 82.5103 13H92.5083C93.8711 13 95.0079 14.137 95.0079 15.5V23H74.0119C73.4294 23 73.0121 23.4176 73.0121 24V27C73.0121 27.5826 73.4294 28 74.0119 28H78.0111C78.0111 29.363 76.3745 31 75.0117 31H66.0134C64.6509 31 64.0138 30.363 64.0138 29V19C64.0138 18.4182 63.5959 18 63.014 18H60.0146C59.4327 18 59.0148 18.4182 59.0148 19V29C59.0148 33.5 61.5143 36 66.0134 36H75.0117C79.2462 36 83.0102 32.2353 83.0102 28H99.0071C99.588 28 100.007 27.5808 100.007 27V26L101.098 27.3892C101.463 27.8724 101.901 28 102.506 28H109.005C113.24 28 116.004 25.2353 116.004 21V14C116.004 13.418 115.586 13 115.004 13H112.005ZM105.006 31C104.424 31 104.006 31.4176 104.006 32V35C104.006 35.5826 104.424 36 105.006 36H113.004C113.587 36 114.004 35.5826 114.004 35V32C114.004 31.4176 113.587 31 113.004 31H105.006ZM87.0094 31C86.4271 31 86.0096 31.4176 86.0096 32V35C86.0096 35.5826 86.4271 36 87.0094 36H90.5087C91.091 36 91.5085 35.5826 91.5085 35V32C91.5085 31.4176 91.091 31 90.5087 31H87.0094ZM120.003 8C119.421 8 119.003 8.41803 119.003 9V12C119.003 12.5818 119.421 13 120.003 13H129.001C130.364 13 131.001 13.637 131.001 15V21C131.001 22.3628 130.364 23 129.001 23H120.003C119.421 23 119.003 23.4178 119.003 24V27C119.003 27.582 119.421 28 120.003 28H129.001C133.236 28 136 25.2353 136 21V15C136 10.7647 133.236 8 129.001 8H120.003ZM42.5179 8L47.5664 1.49549C48.0588 0.9 47.6354 0 46.8626 0H43.0217C42.41 0 41.83 0.273083 41.44 0.744663L33.0198 11.5C32.4465 12.1935 32.6198 13 33.5197 13H45.0175C47.8788 13 50.0165 15.1381 50.0165 18V23H30.0203C28.7378 23 28.0207 22.3453 28.0207 21V5C28.0207 4.41823 27.6026 4 27.0209 4H24.0215C23.4396 4 23.0217 4.41823 23.0217 5V21C23.0217 25.5 26.521 28 31.0201 28H54.0157C54.5966 28 55.0155 27.5808 55.0155 27V18C55.0155 12.2657 50.7505 8 45.0175 8H42.5179ZM16.023 4C15.4414 4 15.0232 4.41823 15.0232 5V21C15.0232 22.3632 14.3866 23 13.0236 23H2.02571C1.44386 23 1.0259 23.4182 1.0259 24V27C1.0259 27.5822 1.44386 28 2.02571 28H13.0236C17.5227 28 20.0223 25.5 20.0223 21V5C20.0223 4.41823 19.6043 4 19.0224 4H16.023ZM3.84313 18.7288L0.026095 5C-0.130803 4.44289 0.44723 4 1.0259 4H3.68383C4.21517 4 4.7962 4.23056 4.94037 4.74232L9.04094 18.6329C9.19664 19.1859 8.84274 19.6112 8.26844 19.6112H5.00863C4.46615 19.6112 3.99009 19.2507 3.84313 18.7288Z" fill="#EF394E"/>
</symbol>
<symbol id="icon-bullhorn" viewBox="0 0 32 32">
<path d="M32 13.414c0-6.279-1.837-11.373-4.109-11.413 0.009-0 0.018-0.001 0.027-0.001h-2.592c0 0-6.088 4.573-14.851 6.367-0.268 1.415-0.438 3.102-0.438 5.047s0.171 3.631 0.438 5.047c8.763 1.794 14.851 6.367 14.851 6.367h2.592c-0.009 0-0.018-0.001-0.027-0.001 2.272-0.040 4.109-5.134 4.109-11.413zM27.026 23.102c-0.293 0-0.61-0.304-0.773-0.486-0.395-0.439-0.775-1.124-1.1-1.979-0.727-1.913-1.127-4.478-1.127-7.223s0.4-5.309 1.127-7.223c0.325-0.855 0.705-1.54 1.1-1.979 0.163-0.182 0.48-0.486 0.773-0.486s0.61 0.304 0.773 0.486c0.395 0.439 0.775 1.124 1.1 1.979 0.727 1.913 1.127 4.479 1.127 7.223s-0.4 5.309-1.127 7.223c-0.325 0.855-0.705 1.54-1.1 1.979-0.163 0.181-0.48 0.486-0.773 0.486zM7.869 13.414c0-1.623 0.119-3.201 0.345-4.659-1.48 0.205-2.779 0.323-4.386 0.323-2.096 0-2.096 0-2.096 0l-1.733 2.959v2.755l1.733 2.959c0 0 0 0 2.096 0 1.606 0 2.905 0.118 4.386 0.323-0.226-1.458-0.345-3.036-0.345-4.659zM11.505 20.068l-4-0.766 2.558 10.048c0.132 0.52 0.648 0.782 1.146 0.583l3.705-1.483c0.498-0.199 0.698-0.749 0.444-1.221l-3.853-7.161zM27.026 17.148c-0.113 0-0.235-0.117-0.298-0.187-0.152-0.169-0.299-0.433-0.424-0.763-0.28-0.738-0.434-1.726-0.434-2.784s0.154-2.046 0.434-2.784c0.125-0.33 0.272-0.593 0.424-0.763 0.063-0.070 0.185-0.187 0.298-0.187s0.235 0.117 0.298 0.187c0.152 0.169 0.299 0.433 0.424 0.763 0.28 0.737 0.434 1.726 0.434 2.784s-0.154 2.046-0.434 2.784c-0.125 0.33-0.272 0.593-0.424 0.763-0.063 0.070-0.185 0.187-0.298 0.187z"></path>
</symbol>
<symbol id="icon-bell" viewBox="0 0 32 32">
<path d="M32.047 25c0-9-8-7-8-14 0-0.58-0.056-1.076-0.158-1.498-0.526-3.532-2.88-6.366-5.93-7.23 0.027-0.123 0.041-0.251 0.041-0.382 0-1.040-0.9-1.891-2-1.891s-2 0.851-2 1.891c0 0.131 0.014 0.258 0.041 0.382-3.421 0.969-5.966 4.416-6.039 8.545-0.001 0.060-0.002 0.121-0.002 0.183 0 7-8 5-8 14 0 2.382 5.331 4.375 12.468 4.878 0.673 1.263 2.002 2.122 3.532 2.122s2.86-0.86 3.532-2.122c7.137-0.503 12.468-2.495 12.468-4.878 0-0.007-0.001-0.014-0.001-0.021l0.048 0.021zM25.82 26.691c-1.695 0.452-3.692 0.777-5.837 0.958-0.178-2.044-1.893-3.648-3.984-3.648s-3.805 1.604-3.984 3.648c-2.144-0.18-4.142-0.506-5.837-0.958-2.332-0.622-3.447-1.318-3.855-1.691 0.408-0.372 1.523-1.068 3.855-1.691 2.712-0.724 6.199-1.122 9.82-1.122s7.109 0.398 9.82 1.122c2.332 0.622 3.447 1.318 3.855 1.691-0.408 0.372-1.523 1.068-3.855 1.691z"></path>
</symbol>
<symbol id="icon-floppy-disk" viewBox="0 0 32 32">
<path d="M28 0h-28v32h32v-28l-4-4zM16 4h4v8h-4v-8zM28 28h-24v-24h2v10h18v-10h2.343l1.657 1.657v22.343z"></path>
</symbol>
<symbol id="icon-stats-dots" viewBox="0 0 32 32">
<path d="M4 28h28v4h-32v-32h4zM9 26c-1.657 0-3-1.343-3-3s1.343-3 3-3c0.088 0 0.176 0.005 0.262 0.012l3.225-5.375c-0.307-0.471-0.487-1.033-0.487-1.638 0-1.657 1.343-3 3-3s3 1.343 3 3c0 0.604-0.179 1.167-0.487 1.638l3.225 5.375c0.086-0.007 0.174-0.012 0.262-0.012 0.067 0 0.133 0.003 0.198 0.007l5.324-9.316c-0.329-0.482-0.522-1.064-0.522-1.691 0-1.657 1.343-3 3-3s3 1.343 3 3c0 1.657-1.343 3-3 3-0.067 0-0.133-0.003-0.198-0.007l-5.324 9.316c0.329 0.481 0.522 1.064 0.522 1.691 0 1.657-1.343 3-3 3s-3-1.343-3-3c0-0.604 0.179-1.167 0.487-1.638l-3.225-5.375c-0.086 0.007-0.174 0.012-0.262 0.012s-0.176-0.005-0.262-0.012l-3.225 5.375c0.307 0.471 0.487 1.033 0.487 1.637 0 1.657-1.343 3-3 3z"></path>
</symbol>
<symbol id="icon-fire" viewBox="0 0 32 32">
<path d="M10.031 32c-2.133-4.438-0.997-6.981 0.642-9.376 1.795-2.624 2.258-5.221 2.258-5.221s1.411 1.834 0.847 4.703c2.493-2.775 2.963-7.196 2.587-8.889 5.635 3.938 8.043 12.464 4.798 18.783 17.262-9.767 4.294-24.38 2.036-26.027 0.753 1.646 0.895 4.433-0.625 5.785-2.573-9.759-8.937-11.759-8.937-11.759 0.753 5.033-2.728 10.536-6.084 14.648-0.118-2.007-0.243-3.392-1.298-5.312-0.237 3.646-3.023 6.617-3.777 10.27-1.022 4.946 0.765 8.568 7.555 12.394z"></path>
</symbol>
<symbol id="icon-star-empty" viewBox="0 0 32 32">
<path d="M32 12.408l-11.056-1.607-4.944-10.018-4.944 10.018-11.056 1.607 8 7.798-1.889 11.011 9.889-5.199 9.889 5.199-1.889-11.011 8-7.798zM16 23.547l-6.983 3.671 1.334-7.776-5.65-5.507 7.808-1.134 3.492-7.075 3.492 7.075 7.807 1.134-5.65 5.507 1.334 7.776-6.983-3.671z"></path>
</symbol>
<symbol id="icon-star-half" viewBox="0 0 32 32">
<path d="M32 12.408l-11.056-1.607-4.944-10.018-4.944 10.018-11.056 1.607 8 7.798-1.889 11.011 9.889-5.199 9.889 5.199-1.889-11.011 8-7.798zM16 23.547l-0.029 0.015 0.029-17.837 3.492 7.075 7.807 1.134-5.65 5.507 1.334 7.776-6.983-3.671z"></path>
</symbol>
<symbol id="icon-star-full" viewBox="0 0 32 32">
<path d="M32 12.408l-11.056-1.607-4.944-10.018-4.944 10.018-11.056 1.607 8 7.798-1.889 11.011 9.889-5.199 9.889 5.199-1.889-11.011 8-7.798z"></path>
</symbol>
<symbol id="icon-heart" viewBox="0 0 32 32">
<path d="M23.6 2c-3.363 0-6.258 2.736-7.599 5.594-1.342-2.858-4.237-5.594-7.601-5.594-4.637 0-8.4 3.764-8.4 8.401 0 9.433 9.516 11.906 16.001 21.232 6.13-9.268 15.999-12.1 15.999-21.232 0-4.637-3.763-8.401-8.4-8.401z"></path>
</symbol>
<symbol id="icon-enter" viewBox="0 0 32 32">
<path d="M12 16h-10v-4h10v-4l6 6-6 6zM32 0v26l-12 6v-6h-12v-8h2v6h10v-18l8-4h-18v8h-2v-10z"></path>
</symbol>
<symbol id="icon-sort-amount-desc" viewBox="0 0 32 32">
<path d="M10 24v-24h-4v24h-5l7 7 7-7h-5z"></path>
<path d="M14 0h18v4h-18v-4z"></path>
<path d="M14 6h14v4h-14v-4z"></path>
<path d="M14 12h10v4h-10v-4z"></path>
<path d="M14 18h6v4h-6v-4z"></path>
</symbol>
<symbol id="icon-share2" viewBox="0 0 32 32">
<path d="M27 22c-1.411 0-2.685 0.586-3.594 1.526l-13.469-6.734c0.041-0.258 0.063-0.522 0.063-0.791s-0.022-0.534-0.063-0.791l13.469-6.734c0.909 0.94 2.183 1.526 3.594 1.526 2.761 0 5-2.239 5-5s-2.239-5-5-5-5 2.239-5 5c0 0.269 0.022 0.534 0.063 0.791l-13.469 6.734c-0.909-0.94-2.183-1.526-3.594-1.526-2.761 0-5 2.239-5 5s2.239 5 5 5c1.411 0 2.685-0.586 3.594-1.526l13.469 6.734c-0.041 0.258-0.063 0.522-0.063 0.791 0 2.761 2.239 5 5 5s5-2.239 5-5c0-2.761-2.239-5-5-5z"></path>
</symbol>
<symbol id="icon-instagram" viewBox="0 0 32 32">
<path d="M16 2.881c4.275 0 4.781 0.019 6.462 0.094 1.563 0.069 2.406 0.331 2.969 0.55 0.744 0.288 1.281 0.638 1.837 1.194 0.563 0.563 0.906 1.094 1.2 1.838 0.219 0.563 0.481 1.412 0.55 2.969 0.075 1.688 0.094 2.194 0.094 6.463s-0.019 4.781-0.094 6.463c-0.069 1.563-0.331 2.406-0.55 2.969-0.288 0.744-0.637 1.281-1.194 1.837-0.563 0.563-1.094 0.906-1.837 1.2-0.563 0.219-1.413 0.481-2.969 0.55-1.688 0.075-2.194 0.094-6.463 0.094s-4.781-0.019-6.463-0.094c-1.563-0.069-2.406-0.331-2.969-0.55-0.744-0.288-1.281-0.637-1.838-1.194-0.563-0.563-0.906-1.094-1.2-1.837-0.219-0.563-0.481-1.413-0.55-2.969-0.075-1.688-0.094-2.194-0.094-6.463s0.019-4.781 0.094-6.463c0.069-1.563 0.331-2.406 0.55-2.969 0.288-0.744 0.638-1.281 1.194-1.838 0.563-0.563 1.094-0.906 1.838-1.2 0.563-0.219 1.412-0.481 2.969-0.55 1.681-0.075 2.188-0.094 6.463-0.094zM16 0c-4.344 0-4.887 0.019-6.594 0.094-1.7 0.075-2.869 0.35-3.881 0.744-1.056 0.412-1.95 0.956-2.837 1.85-0.894 0.888-1.438 1.781-1.85 2.831-0.394 1.019-0.669 2.181-0.744 3.881-0.075 1.713-0.094 2.256-0.094 6.6s0.019 4.887 0.094 6.594c0.075 1.7 0.35 2.869 0.744 3.881 0.413 1.056 0.956 1.95 1.85 2.837 0.887 0.887 1.781 1.438 2.831 1.844 1.019 0.394 2.181 0.669 3.881 0.744 1.706 0.075 2.25 0.094 6.594 0.094s4.888-0.019 6.594-0.094c1.7-0.075 2.869-0.35 3.881-0.744 1.050-0.406 1.944-0.956 2.831-1.844s1.438-1.781 1.844-2.831c0.394-1.019 0.669-2.181 0.744-3.881 0.075-1.706 0.094-2.25 0.094-6.594s-0.019-4.887-0.094-6.594c-0.075-1.7-0.35-2.869-0.744-3.881-0.394-1.063-0.938-1.956-1.831-2.844-0.887-0.887-1.781-1.438-2.831-1.844-1.019-0.394-2.181-0.669-3.881-0.744-1.712-0.081-2.256-0.1-6.6-0.1v0z"></path>
<path d="M16 7.781c-4.537 0-8.219 3.681-8.219 8.219s3.681 8.219 8.219 8.219 8.219-3.681 8.219-8.219c0-4.537-3.681-8.219-8.219-8.219zM16 21.331c-2.944 0-5.331-2.387-5.331-5.331s2.387-5.331 5.331-5.331c2.944 0 5.331 2.387 5.331 5.331s-2.387 5.331-5.331 5.331z"></path>
<path d="M26.462 7.456c0 1.060-0.859 1.919-1.919 1.919s-1.919-0.859-1.919-1.919c0-1.060 0.859-1.919 1.919-1.919s1.919 0.859 1.919 1.919z"></path>
</symbol>
<symbol id="icon-twitter" viewBox="0 0 32 32">
<path d="M32 7.075c-1.175 0.525-2.444 0.875-3.769 1.031 1.356-0.813 2.394-2.1 2.887-3.631-1.269 0.75-2.675 1.3-4.169 1.594-1.2-1.275-2.906-2.069-4.794-2.069-3.625 0-6.563 2.938-6.563 6.563 0 0.512 0.056 1.012 0.169 1.494-5.456-0.275-10.294-2.888-13.531-6.862-0.563 0.969-0.887 2.1-0.887 3.3 0 2.275 1.156 4.287 2.919 5.463-1.075-0.031-2.087-0.331-2.975-0.819 0 0.025 0 0.056 0 0.081 0 3.181 2.263 5.838 5.269 6.437-0.55 0.15-1.131 0.231-1.731 0.231-0.425 0-0.831-0.044-1.237-0.119 0.838 2.606 3.263 4.506 6.131 4.563-2.25 1.762-5.075 2.813-8.156 2.813-0.531 0-1.050-0.031-1.569-0.094 2.913 1.869 6.362 2.95 10.069 2.95 12.075 0 18.681-10.006 18.681-18.681 0-0.287-0.006-0.569-0.019-0.85 1.281-0.919 2.394-2.075 3.275-3.394z"></path>
</symbol>
<symbol id="icon-linkedin2" viewBox="0 0 32 32">
<path d="M12 12h5.535v2.837h0.079c0.77-1.381 2.655-2.837 5.464-2.837 5.842 0 6.922 3.637 6.922 8.367v9.633h-5.769v-8.54c0-2.037-0.042-4.657-3.001-4.657-3.005 0-3.463 2.218-3.463 4.509v8.688h-5.767v-18z"></path>
<path d="M2 12h6v18h-6v-18z"></path>
<path d="M8 7c0 1.657-1.343 3-3 3s-3-1.343-3-3c0-1.657 1.343-3 3-3s3 1.343 3 3z"></path>
</symbol>
<symbol id="icon-menu" viewBox="0 0 20 20">
<path d="M0 3h20v2h-20v-2zM0 9h20v2h-20v-2zM0 15h20v2h-20v-2z"></path>
</symbol>
<symbol id="icon-exclamation-outline" viewBox="0 0 20 20">
<path d="M2.93 17.070c-1.884-1.821-3.053-4.37-3.053-7.193 0-5.523 4.477-10 10-10 2.823 0 5.372 1.169 7.19 3.050l0.003 0.003c1.737 1.796 2.807 4.247 2.807 6.947 0 5.523-4.477 10-10 10-2.7 0-5.151-1.070-6.95-2.81l0.003 0.003zM15.66 15.66c1.449-1.449 2.344-3.45 2.344-5.66 0-4.421-3.584-8.004-8.004-8.004-2.21 0-4.211 0.896-5.66 2.344v0c-1.449 1.449-2.344 3.45-2.344 5.66 0 4.421 3.584 8.004 8.004 8.004 2.21 0 4.211-0.896 5.66-2.344v0zM9 5h2v6h-2v-6zM9 13h2v2h-2v-2z"></path>
</symbol>
<symbol id="icon-cash-on-delivery" viewBox="0 0 56 56">
<path d="M18.3774 46.3837H10.7982C9.92605 46.3837 9.21919 45.6767 9.21919 44.8047V31.9357C9.21919 31.0636 9.92613 30.3567 10.7982 30.3567H18.3775C19.2496 30.3567 19.9565 31.0636 19.9565 31.9357V44.8047C19.9565 45.6767 19.2495 46.3837 18.3774 46.3837Z" fill="#E6123D"/>
<path d="M14.5878 42.4362C14.3802 42.4362 14.1765 42.5206 14.0296 42.6675C13.8828 42.8145 13.7983 43.0181 13.7983 43.2257C13.7983 43.4334 13.8827 43.6371 14.0296 43.7839C14.1765 43.9307 14.3802 44.0153 14.5878 44.0153C14.7955 44.0153 14.9992 43.9308 15.1459 43.7839C15.2928 43.6371 15.3774 43.4334 15.3774 43.2257C15.3774 43.0181 15.2929 42.8144 15.1459 42.6675C14.9991 42.5205 14.7954 42.4362 14.5878 42.4362Z" fill="#424750"/>
<path d="M44.9413 21.9741C44.7336 21.9741 44.5299 22.0585 44.3831 22.2054C44.2363 22.3523 44.1517 22.556 44.1517 22.7636C44.1517 22.9713 44.2362 23.175 44.3831 23.3217C44.5299 23.4686 44.7336 23.5531 44.9413 23.5531C45.1497 23.5531 45.3526 23.4687 45.4995 23.3217C45.647 23.175 45.7315 22.9713 45.7315 22.7636C45.7315 22.556 45.647 22.3523 45.4995 22.2054C45.3526 22.0585 45.1497 21.9741 44.9413 21.9741Z" fill="#424750"/>
<path fill-rule="evenodd" clip-rule="evenodd" d="M48.0629 15.8629C48.2723 15.8629 48.4732 15.9461 48.6213 16.0941C48.7694 16.2422 48.8524 16.443 48.8526 16.6524V46.3838C48.8526 46.8197 48.499 47.1733 48.063 47.1733H24.2298C23.2682 47.1733 22.3397 46.8253 21.615 46.1933L20.6763 45.3747C20.4205 46.4061 19.4871 47.1732 18.3776 47.1732H10.7982C9.49221 47.1732 8.42966 46.1107 8.42974 44.8046V31.9356C8.42974 30.6297 9.49221 29.5671 10.7982 29.5671H18.3775C19.1886 29.5671 19.9056 29.9772 20.3327 30.6008L22.8401 28.0933C23.1228 27.8107 23.7029 27.333 24.6948 26.8032C26.2086 25.9947 27.8515 25.4166 27.8515 25.4166V18.9113V16.6534C27.8515 16.2175 28.205 15.8639 28.641 15.8639L48.0629 15.8629ZM10.7982 45.5942H18.3774C18.8127 45.5942 19.1669 45.24 19.167 44.8047V31.9357C19.167 31.5004 18.8128 31.1462 18.3775 31.1462H15.3774V40.2412C15.3774 40.6771 15.0238 41.0307 14.5878 41.0307C14.1518 41.0307 13.7983 40.6771 13.7983 40.2412V31.1462H10.7982C10.3628 31.1462 10.0086 31.5004 10.0086 31.9357V44.8047C10.0086 45.2401 10.3628 45.5942 10.7982 45.5942ZM22.6526 45.0033L20.746 43.3405V32.4206L23.3029 29.8263C23.3029 29.8263 24.3891 28.8857 25.1206 28.4731C26.6622 27.6036 27.8493 27.262 27.8493 27.262V29.3844L27.0844 31.4197C27.1738 31.7692 27.4886 32.0136 27.8493 32.0136L41.1054 32.0146C41.7149 32.0146 42.2107 32.5104 42.2107 33.1199C42.2107 33.7294 41.7149 34.2253 41.1054 34.2253H33.1517C32.7157 34.2253 32.3622 34.5788 32.3622 35.0148C32.3622 35.4508 32.7157 35.8043 33.1517 35.8043H43.5766C44.1861 35.8043 44.682 36.3002 44.682 36.9097C44.682 37.5192 44.1861 38.015 43.5766 38.015H33.1517C32.7157 38.015 32.3622 38.3686 32.3622 38.8045C32.3622 39.2405 32.7157 39.5941 33.1517 39.5941H41.8873C42.4968 39.5941 42.9926 40.0899 42.9926 40.6994C42.9926 41.3089 42.4968 41.8047 41.8873 41.8047H33.1517C32.7157 41.8047 32.3622 42.1583 32.3622 42.5943C32.3622 43.0303 32.7157 43.3838 33.1517 43.3838H39.1942C39.8037 43.3838 40.2995 43.8796 40.2995 44.4891C40.2995 45.0987 39.8037 45.5945 39.1942 45.5945H24.2296C23.6497 45.5942 23.0897 45.3844 22.6526 45.0033ZM41.8785 44.4889C41.8785 44.8829 41.7925 45.2569 41.6394 45.5942L47.2735 45.5942V17.7777L29.4306 17.7786V30.4355L41.1053 30.4356C42.5855 30.4356 43.7896 31.6398 43.7896 33.1199C43.7896 33.5139 43.7037 33.8879 43.5765 34.2253C43.774 34.2253 43.9664 34.2474 44.152 34.288V25.3038C44.152 24.8679 44.5055 24.5143 44.9415 24.5143C45.3775 24.5143 45.731 24.8679 45.731 25.3038V35.3104C46.0636 35.7573 46.2609 36.3108 46.2609 36.9096C46.2609 38.1439 45.4233 39.1856 44.2866 39.4978C44.4686 39.8596 44.5716 40.2675 44.5716 40.6992C44.5716 42.1794 43.3674 43.3836 41.8873 43.3836H41.6394C41.7925 43.7209 41.8785 44.0949 41.8785 44.4889Z" fill="#424750"/>
<path fill-rule="evenodd" clip-rule="evenodd" d="M32.0558 17.55H36.4436V30.7125H32.0558V17.55Z" fill="#424750"/>
<path fill-rule="evenodd" clip-rule="evenodd" d="M6.57294 15.0188C6.57294 17.9593 9.06672 22.269 14.0302 28.1056C14.3671 28.5018 14.9788 28.5018 15.3157 28.1056C20.2792 22.269 22.7729 17.9593 22.7729 15.0188C22.7729 10.5453 19.1464 6.91876 14.6729 6.91876C10.1994 6.91876 6.57294 10.5453 6.57294 15.0188ZM14.6729 8.60626C18.2145 8.60626 21.0854 11.4772 21.0854 15.0188C21.0854 17.3097 18.9549 21.0984 14.6729 26.2482C10.391 21.0984 8.26044 17.3097 8.26044 15.0188C8.26044 11.4772 11.1314 8.60626 14.6729 8.60626Z" fill="#19BFD3"/>
<path fill-rule="evenodd" clip-rule="evenodd" d="M10.7073 15.0188C10.7073 17.2089 12.4828 18.9844 14.6729 18.9844C16.8631 18.9844 18.6386 17.2089 18.6386 15.0188C18.6386 12.8286 16.8631 11.0531 14.6729 11.0531C12.4828 11.0531 10.7073 12.8286 10.7073 15.0188ZM17.1198 15.0188C17.1198 16.3701 16.0243 17.4656 14.6729 17.4656C13.3216 17.4656 12.2261 16.3701 12.2261 15.0188C12.2261 13.6674 13.3216 12.5719 14.6729 12.5719C16.0243 12.5719 17.1198 13.6674 17.1198 15.0188Z" fill="#19BFD3"/>
</symbol>
<symbol id="icon-days-return" viewBox="0 0 56 56">
<path fill-rule="evenodd" clip-rule="evenodd" d="M23.8099 9.51141L39.9201 14.5458V22.4298L34.5902 24.165V16.6719L17.8189 11.3253L23.8099 9.51141Z" fill="#E6123D"/>
<path fill-rule="evenodd" clip-rule="evenodd" d="M47.2466 13.319C47.206 13.1589 47.1305 13.0422 47.0282 12.9519C46.9803 12.904 46.927 12.8617 46.8693 12.8262C46.8367 12.8069 46.8029 12.7899 46.7682 12.7752C46.744 12.7614 28.0002 6.78994 28.0002 6.78994C27.8327 6.73673 27.6528 6.73673 27.4853 6.78994L8.79205 12.7378C8.43868 12.8489 8.19801 13.1762 8.19727 13.5467V33.9393C8.19758 34.3101 8.43837 34.6378 8.79205 34.7491L15.3567 36.9684C15.5242 37.0216 15.9054 35.4872 15.9054 35.4872L9.89665 33.3182V14.1678L15.5615 12.3656L31.4508 17.4221L27.7402 18.6024L13.5503 14.0888C13.1031 13.9466 12.6253 14.1938 12.4831 14.6411C12.3409 15.0883 12.5882 15.5661 13.0354 15.7083L26.8905 20.1157V30.2149C26.8905 30.6842 27.2709 31.0646 27.7402 31.0646C28.2094 31.0646 28.5899 30.6842 28.5899 30.2149V20.1157L33.4051 18.5862V24.2231C33.4051 24.6923 33.7855 25.0728 34.2548 25.0728C34.3412 25.0722 34.4271 25.0587 34.5097 25.0328L36.492 24.4007C36.9393 24.2584 37.1865 23.7807 37.0443 23.3334C36.9021 22.8862 36.4244 22.6389 35.9771 22.7811L35.1019 23.0598V18.0467L39.4914 16.6498V21.6629L38.5262 21.9697C38.0789 22.1119 37.8317 22.5896 37.9739 23.0369C38.0857 23.3888 38.412 23.6281 38.7811 23.6291C38.8676 23.6292 38.9537 23.6158 39.036 23.5892L40.5943 23.0938C40.948 22.9826 41.1888 22.6549 41.1891 22.2841V16.106L45.5837 14.7091V33.3173L44.4791 33.6699C44.0276 33.7978 43.7652 34.2674 43.893 34.719C44.0209 35.1705 44.4906 35.4329 44.9421 35.3051C44.9578 35.3006 46.6884 34.7491 46.6884 34.7491C47.0421 34.6378 47.2829 34.3101 47.2832 33.9393V13.5467C47.2814 13.4695 47.2691 13.3929 47.2466 13.319ZM34.2539 16.53L18.3647 11.4743L21.6513 10.4283L37.5405 15.484L34.2539 16.53ZM24.4544 9.53614L40.3428 14.5927L43.6294 13.5467L27.7402 8.49102L24.4544 9.53614Z" fill="#424750"/>
<path d="M12.5956 28.0125C12.1586 28.0125 11.8042 28.3669 11.8042 28.8039L11.8042 34.5531C11.8042 34.9902 12.1586 35.3445 12.5956 35.3445C13.0327 35.3445 13.3871 34.9902 13.3871 34.5531V28.8039C13.3871 28.3669 13.0327 28.0125 12.5956 28.0125Z" fill="#424750"/>
<path d="M12.5952 25.65C12.3872 25.65 12.1831 25.7346 12.036 25.8818C11.8888 26.0289 11.8042 26.233 11.8042 26.4418C11.8042 26.649 11.8888 26.8531 12.036 27.0011C12.1831 27.1482 12.3872 27.232 12.5952 27.232C12.8033 27.232 13.0073 27.1482 13.1545 27.0011C13.3016 26.8531 13.3862 26.6498 13.3862 26.4418C13.3862 26.233 13.3016 26.0289 13.1545 25.8818C13.0073 25.7346 12.8033 25.65 12.5952 25.65Z" fill="#424750"/>
<path d="M15.6327 35.4375C15.4247 35.4375 15.2206 35.5221 15.0734 35.6693C14.9263 35.8164 14.8417 36.0205 14.8417 36.2293C14.8417 36.4366 14.9263 36.6406 15.0734 36.7886C15.2206 36.9357 15.4247 37.0195 15.6327 37.0195C15.8407 37.0195 16.0448 36.9357 16.1919 36.7886C16.3391 36.6406 16.4237 36.4373 16.4237 36.2293C16.4237 36.0205 16.3391 35.8164 16.1919 35.6693C16.0448 35.5221 15.8407 35.4375 15.6327 35.4375Z" fill="#424750"/>
<path d="M41.3352 24.7959C40.866 24.7959 40.4855 25.1763 40.4855 25.6456V34.5038C40.4809 38.7253 37.0598 42.1463 32.8383 42.151H22.642C22.1728 42.151 21.7923 42.5314 21.7923 43.0007V44.7672L15.6269 40.4516L21.7923 36.136V37.9025C21.7923 38.3718 22.1728 38.7522 22.642 38.7522H30.2892C33.1037 38.7495 35.3846 36.4686 35.3874 33.6541V33.2928C35.3874 32.8236 35.0069 32.4431 34.5377 32.4431C34.0684 32.4431 33.688 32.8236 33.688 33.2928V33.6541C33.688 35.5312 32.1663 37.0528 30.2892 37.0528H23.4917V34.5038C23.4915 34.0345 23.1108 33.6543 22.6416 33.6545C22.4676 33.6546 22.2978 33.7081 22.1551 33.8079L13.6582 39.7557C13.2738 40.025 13.1806 40.5549 13.4498 40.9391C13.5066 41.0202 13.5772 41.0907 13.6582 41.1475L22.1551 47.0954C22.5397 47.3643 23.0695 47.2705 23.3383 46.8859C23.4381 46.7433 23.4916 46.5735 23.4917 46.3995V43.8504H32.8383C37.9977 43.8443 42.1789 39.6632 42.1849 34.5038V25.6456C42.1849 25.1763 41.8045 24.7959 41.3352 24.7959Z" fill="#19BFD3"/>
<path fill-rule="evenodd" clip-rule="evenodd" d="M14.8417 20.5875H23.3409V22.7875L18.8844 33.75H16.1391L20.4639 23.0696H14.8417V20.5875Z" fill="#E6123D"/>
</symbol>
<symbol id="icon-express-delivery" viewBox="0 0 56 56">
<path fill-rule="evenodd" clip-rule="evenodd" d="M29.9492 13.5L46.0594 18.5345V26.4185L40.7293 28.1536V20.6604L23.9583 15.3141L29.9492 13.5Z" fill="#E6123D"/>
<path d="M30.7164 13.4809L46.9304 18.6615C47.28 18.7732 47.5173 19.0982 47.5173 19.4653V26.3065C47.5173 26.6642 47.2918 26.983 46.9546 27.1021L45.3699 27.6618C44.9305 27.817 44.4485 27.5866 44.2933 27.1472C44.1381 26.7078 44.3685 26.2258 44.8079 26.0706L45.8298 25.7097V20.0814L27.7739 14.3123C26.9997 14.0649 26.9885 12.9735 27.7574 12.7103L33.6976 10.6767C33.8681 10.6184 34.0529 10.6161 34.2248 10.6704L53.1248 16.6342C53.4759 16.745 53.7146 17.0706 53.7146 17.4388V38.0142C53.7146 38.3822 53.4762 38.7077 53.1253 38.8187L34.2253 44.7975C34.0587 44.8502 33.8799 44.8498 33.7135 44.7965L15.0491 38.8178C14.6998 38.7059 14.4628 38.3811 14.4628 38.0142V35.2294C14.4628 34.7634 14.8405 34.3856 15.3065 34.3856C15.7725 34.3856 16.1503 34.7634 16.1503 35.2294V37.3985L33.9725 43.1075L52.0271 37.3962V18.0573L33.9816 12.3632L30.7164 13.4809Z" fill="#424750"/>
<path d="M52.6164 16.7455C53.0607 16.605 53.5348 16.8512 53.6753 17.2955C53.8159 17.7398 53.5696 18.2139 53.1253 18.3545L34.2253 24.3332C34.0593 24.3857 33.8811 24.3856 33.7152 24.3328L19.2918 19.7459C18.8477 19.6047 18.6022 19.1302 18.7434 18.6861C18.8847 18.2421 19.3591 17.9966 19.8032 18.1378L33.9715 22.6436L52.6164 16.7455Z" fill="#424750"/>
<path d="M42.3923 26.8191C42.8348 26.673 43.3119 26.9132 43.4581 27.3557C43.6042 27.7982 43.364 28.2753 42.9215 28.4215L40.8408 29.1087C40.2949 29.289 39.7324 28.8824 39.7324 28.3075V22.0824L21.6765 16.3132C20.8982 16.0645 20.8924 14.9654 21.668 14.7085L28.7559 12.3615C29.1982 12.215 29.6756 12.4549 29.8221 12.8973C29.9686 13.3396 29.7287 13.817 29.2863 13.9635L24.6607 15.4952L40.833 20.6625C41.1826 20.7742 41.4199 21.0991 41.4199 21.4662V27.1402L42.3923 26.8191Z" fill="#424750"/>
<path d="M16.1455 18.2049V22.2706C16.1455 22.7365 15.7677 23.1143 15.3017 23.1143C14.8358 23.1143 14.458 22.7365 14.458 22.2706V17.5854C14.458 17.2168 14.6973 16.8909 15.049 16.7804L21.7528 14.6755C22.1974 14.5359 22.671 14.7832 22.8106 15.2278C22.9502 15.6723 22.7029 16.1459 22.2584 16.2855L16.1455 18.2049Z" fill="#424750"/>
<path d="M23.2715 24.1313C23.7375 24.1313 24.1153 24.509 24.1153 24.975C24.1153 25.441 23.7375 25.8188 23.2715 25.8188H8.09575C7.62976 25.8188 7.252 25.441 7.252 24.975C7.252 24.509 7.62976 24.1313 8.09575 24.1313H23.2715Z" fill="#19BFD3"/>
<path d="M14.8341 27.8438C15.3 27.8438 15.6778 28.2215 15.6778 28.6875C15.6778 29.1535 15.3 29.5312 14.8341 29.5312H1.68326C1.21727 29.5312 0.839508 29.1535 0.839508 28.6875C0.839508 28.2215 1.21727 27.8438 1.68326 27.8438H14.8341Z" fill="#19BFD3"/>
<circle cx="5.5645" cy="24.975" r="0.84375" fill="#19BFD3"/>
<circle cx="7.927" cy="32.4" r="0.84375" fill="#19BFD3"/>
<path d="M18.8841 31.5562C19.35 31.5562 19.7278 31.934 19.7278 32.4C19.7278 32.866 19.35 33.2437 18.8841 33.2437H10.4583C9.99226 33.2437 9.6145 32.866 9.6145 32.4C9.6145 31.934 9.99226 31.5562 10.4583 31.5562H18.8841Z" fill="#19BFD3"/>
<path d="M27.3215 9.28125C27.7875 9.28125 28.1653 9.65901 28.1653 10.125C28.1653 10.591 27.7875 10.9688 27.3215 10.9688H14.1707C13.7048 10.9688 13.327 10.591 13.327 10.125C13.327 9.65901 13.7048 9.28125 14.1707 9.28125H27.3215Z" fill="#19BFD3"/>
<path d="M14.1591 13.3312C14.625 13.3312 15.0028 13.709 15.0028 14.175C15.0028 14.641 14.625 15.0187 14.1591 15.0187H7.75826C7.29226 15.0187 6.91451 14.641 6.91451 14.175C6.91451 13.709 7.29226 13.3312 7.75826 13.3312H14.1591Z" fill="#19BFD3"/>
<path d="M34.927 43.9172C34.927 44.3832 34.5492 44.7609 34.0833 44.7609C33.6173 44.7609 33.2395 44.3832 33.2395 43.9172V39.7439C33.2395 39.2779 33.6173 38.9001 34.0833 38.9001C34.5492 38.9001 34.927 39.2779 34.927 39.7439V43.9172Z" fill="#424750"/>
<path d="M34.927 36.3534C34.927 36.8194 34.5492 37.1972 34.0833 37.1972C33.6173 37.1972 33.2395 36.8194 33.2395 36.3534V24.3C33.2395 23.834 33.6173 23.4562 34.0833 23.4562C34.5492 23.4562 34.927 23.834 34.927 24.3V36.3534Z" fill="#424750"/>
</symbol>
<symbol id="icon-logo-en" viewBox="0 0 123 32">
<path fill="#ee384e" style="fill: var(--color2, #ee384e)" d="M82.044 20.292h7.168v-9.365h-7.168c-1.237 0-2.389 1.132-2.389 2.341v4.683c0 1.21 1.152 2.341 2.389 2.341zM110.719 20.292h7.168v-9.365h-7.168c-1.237 0-2.389 1.132-2.389 2.341v4.683c0 1.21 1.152 2.341 2.389 2.341zM93.991 7.414v16.39c0 0.516-0.667 1.171-1.195 1.171l-2.389 0.025c-0.529 0-1.195-0.679-1.195-1.195v-0.782l-1.085 1.276c-0.331 0.441-1.146 0.676-1.703 0.676h-4.381c-3.844 0-7.169-3.267-7.169-7.025v-4.683c0-3.758 3.325-7.024 7.168-7.024h10.754c0.528 0 1.195 0.654 1.195 1.17zM122.667 7.414v16.39c0 0.516-0.666 1.171-1.195 1.171l-2.389 0.025c-0.529 0-1.195-0.679-1.195-1.195v-0.782l-1.085 1.276c-0.331 0.441-1.146 0.676-1.703 0.676h-4.381c-3.844 0-7.169-3.267-7.169-7.025v-4.683c0-3.758 3.325-7.024 7.168-7.024h10.754c0.528 0 1.195 0.654 1.195 1.17zM43.013 10.927h-7.169c-1.237 0-2.389 1.132-2.389 2.341v4.683c0 1.21 1.152 2.341 2.389 2.341h7.168v-9.365zM47.792 7.414v17.951c0 3.758-3.325 6.635-7.168 6.635h-3.696c-0.549 0-1.067-0.252-1.398-0.681l-2.103-2.72c-0.349-0.452-0.154-1.282 0.426-1.282h6.77c1.237 0 2.389-0.742 2.389-1.952v-0.389h-7.168c-3.844 0-7.168-3.267-7.168-7.025v-4.683c0-3.758 3.324-7.024 7.168-7.024h4.381c0.548 0 1.146 0.432 1.533 0.78l1.255 1.171v-0.782c0-0.515 0.667-1.17 1.195-1.17h2.389c0.529 0 1.195 0.654 1.195 1.17zM4.78 17.952c0 1.21 1.152 2.341 2.389 2.341h7.168v-9.365h-7.168c-1.237 0-2.389 1.132-2.389 2.341v4.683zM17.92 0c0.53 0 1.196 0.654 1.196 1.171v22.635c0 0.515-0.666 1.17-1.195 1.17h-2.389c-0.529 0-1.195-0.654-1.195-1.171v-0.781l-1.253 1.314c-0.339 0.369-0.994 0.638-1.536 0.638h-4.378c-3.845 0-7.17-3.267-7.17-7.025v-4.646c0-3.758 3.325-7.061 7.168-7.061h7.17v-5.071c0-0.517 0.666-1.171 1.195-1.171h2.389zM67.307 15.61l6.652-8.25c0.37-0.449 0.043-1.118-0.547-1.118h-3.804c-0.288 0-0.56 0.127-0.742 0.345l-6.735 8.242v-13.658c0-0.517-0.667-1.171-1.195-1.171h-2.389c-0.529 0-1.195 0.654-1.195 1.171v22.635c0 0.515 0.666 1.17 1.195 1.17h2.389c0.528 0 1.195-0.655 1.195-1.171v-7.414l6.738 8.26c0.181 0.221 0.457 0.35 0.747 0.35h3.799c0.591 0 0.917-0.669 0.548-1.118l-6.656-8.273zM51.377 0c-0.529 0-1.195 0.654-1.195 1.171v2.341c0 0.516 0.666 1.17 1.195 1.17h2.389c0.528 0 1.195-0.654 1.195-1.17v-2.341c0-0.517-0.667-1.171-1.195-1.171h-2.389zM51.377 6.244c-0.529 0-1.195 0.654-1.195 1.17v16.39c0 0.516 0.853 1.195 1.381 1.195l2.203-0.023c0.528 0 1.195-0.655 1.195-1.171v-16.39c0-0.516-0.667-1.17-1.195-1.17h-2.389zM22.701 0c-0.528 0-1.195 0.654-1.195 1.171v2.341c0 0.516 0.667 1.17 1.195 1.17h2.389c0.529 0 1.195-0.654 1.195-1.17v-2.341c0-0.517-0.666-1.171-1.195-1.171h-2.389zM22.701 6.244c-0.528 0-1.195 0.654-1.195 1.17v16.39c0 0.516 0.667 1.171 1.195 1.171h2.389c0.529 0 1.195-0.655 1.195-1.171v-16.39c0-0.516-0.666-1.17-1.195-1.17h-2.389zM101.161 1.171v22.635c0 0.515-0.667 1.17-1.195 1.17h-2.389c-0.529 0-1.195-0.655-1.195-1.171v-22.635c0-0.516 0.666-1.17 1.195-1.17h2.389c0.528 0 1.195 0.654 1.195 1.171z"></path>
</symbol>
<symbol id="icon-original-products" viewBox="0 0 56 56">
<path fill-rule="evenodd" clip-rule="evenodd" d="M41.9305 29.6715L41.9074 29.5196C41.7378 28.4116 41.7248 27.9845 41.8499 27.5209C41.9685 27.0821 42.1898 26.7306 42.8787 25.8818C43.8101 24.7345 44.0439 24.3034 44.0438 23.625C44.0438 22.9469 43.8099 22.5157 42.8786 21.3685L42.8037 21.2763C42.195 20.5246 41.9636 20.1505 41.8499 19.7296C41.7639 19.411 41.7476 19.0404 41.7974 18.5417C41.818 18.3354 41.8426 18.1548 41.9075 17.731C42.1272 16.2967 42.1136 15.8324 41.7846 15.2696C41.4613 14.7163 41.019 14.4415 39.7705 13.9594L39.6688 13.9202C38.6248 13.5182 38.2483 13.3189 37.9132 12.9872C37.5782 12.6555 37.3772 12.2832 36.9712 11.2499L36.9314 11.1489C36.4444 9.91296 36.1665 9.47468 35.6078 9.15476C35.0667 8.84478 34.5428 8.82328 33.2251 9.01842L33.0953 9.03786C32.6952 9.09783 32.5144 9.1219 32.3079 9.14216C31.802 9.19181 31.4262 9.17573 31.1032 9.09029C30.6592 8.97284 30.3039 8.75363 29.4462 8.07148C28.2875 7.14984 27.8527 6.91876 27.1689 6.91876C26.5704 6.91876 26.056 7.16668 25.2241 7.80948C25.1428 7.87226 25.0635 7.93472 24.8918 8.07114C24.0339 8.75342 23.6786 8.97263 23.2347 9.09008C22.7655 9.21415 22.3328 9.20117 21.2137 9.03322C19.7661 8.81588 19.2979 8.82929 18.7303 9.15436C18.1527 9.48514 17.9013 9.88936 17.367 11.2494C16.9611 12.2824 16.7599 12.6549 16.4248 12.9866C16.1184 13.2899 15.717 13.5115 14.9035 13.8289C14.8415 13.8531 14.7925 13.8721 14.6692 13.9195L14.5671 13.9589C13.3188 14.4409 12.8766 14.7157 12.5532 15.2689C12.2395 15.8057 12.2178 16.3254 12.4151 17.6312L12.4346 17.759C12.4952 18.155 12.5195 18.3339 12.54 18.5382C12.5901 19.0385 12.5738 19.41 12.4877 19.7291C12.3685 20.1703 12.1441 20.5239 11.4124 21.4255C11.3165 21.5438 11.2558 21.6195 11.1953 21.6962C10.5446 22.5212 10.2938 23.0309 10.2938 23.625C10.2938 24.2184 10.5445 24.7284 11.1932 25.5511C11.257 25.6321 11.3206 25.7111 11.4588 25.8815C12.1476 26.73 12.3691 27.0818 12.4876 27.5207C12.5737 27.8394 12.59 28.2103 12.5401 28.7095C12.5194 28.9156 12.4949 29.0959 12.43 29.5192C12.2104 30.9533 12.2239 31.4177 12.5529 31.9806C12.8763 32.5338 13.3186 32.8086 14.567 33.2907L14.6687 33.3299C15.7127 33.7319 16.0893 33.9312 16.4244 34.263C16.7594 34.5946 16.9605 34.9669 17.3664 36.0002L17.4062 36.1013C17.8933 37.3372 18.1712 37.7754 18.7299 38.0954C19.271 38.4053 19.7949 38.4268 21.113 38.2316L21.2432 38.2121C21.6439 38.152 21.8252 38.1279 22.0321 38.1077C22.2223 38.089 22.39 38.0799 22.5446 38.0799C22.806 38.0799 23.0317 38.1061 23.2344 38.1597C23.6784 38.2772 24.0337 38.4964 24.8914 39.1785C26.0502 40.1002 26.4849 40.3313 27.1688 40.3313C27.8526 40.3313 28.2873 40.1002 29.446 39.1786L29.5393 39.1045C30.2988 38.5017 30.677 38.2725 31.1029 38.1598C31.5721 38.0357 32.0042 38.0487 33.1239 38.2167C34.5715 38.434 35.0397 38.4206 35.6074 38.0956C36.1849 37.7648 36.4364 37.3606 36.9707 36.0005C37.3765 34.9676 37.5777 34.595 37.9128 34.2634C38.248 33.9315 38.6243 33.7324 39.6684 33.3304L39.7705 33.291C41.0188 32.809 41.4611 32.5342 41.7844 31.981C42.0981 31.4442 42.1199 30.9245 41.9305 29.6715ZM42.3141 23.6252C42.3141 23.7684 42.0987 24.107 41.5314 24.8059C40.6679 25.8698 40.3754 26.3504 40.1792 27.077C39.9769 27.826 39.9869 28.4022 40.2009 29.8004L40.22 29.9259C40.3267 30.6325 40.3395 31.0324 40.288 31.1206C40.2286 31.2223 39.8684 31.4122 39.143 31.6923L39.0425 31.731C37.7409 32.2321 37.2373 32.5081 36.6909 33.049C36.1444 33.59 35.8652 34.0892 35.359 35.3776C35.0402 36.1891 34.8519 36.5471 34.7425 36.6098C34.6436 36.6665 34.2334 36.6481 33.3827 36.5204C31.9929 36.3118 31.4117 36.3025 30.6571 36.5022C29.9509 36.689 29.4266 36.9968 28.4586 37.765L28.364 37.8402C27.6568 38.4026 27.315 38.6156 27.1688 38.6156C27.0225 38.6156 26.6806 38.4025 25.9735 37.8401C24.8989 36.9855 24.4136 36.6961 23.6802 36.5021C23.3276 36.4087 22.9548 36.3643 22.5446 36.3643C22.3313 36.3643 22.1082 36.3762 21.8622 36.4003C21.6169 36.4243 21.4138 36.4514 20.9311 36.5238L20.8045 36.5427C20.0895 36.6486 19.6849 36.6612 19.5948 36.6096C19.4917 36.5506 19.3002 36.1948 19.0172 35.4767L18.978 35.3772C18.4717 34.0885 18.1928 33.5897 17.6464 33.0487C17.1 32.5078 16.5961 32.2316 15.2947 31.7306L15.1945 31.692C14.4689 31.4118 14.1088 31.2219 14.0493 31.1201C13.9925 31.023 14.0119 30.6138 14.1445 29.7481C14.2103 29.3188 14.2373 29.1191 14.2613 28.8788C14.3318 28.1737 14.3027 27.6111 14.1584 27.0768C13.9612 26.3466 13.6664 25.8654 12.7604 24.7493C12.6687 24.6362 12.6113 24.5647 12.5557 24.4942C12.2002 24.0433 12.0234 23.7371 12.0234 23.625C12.0234 23.5127 12.2006 23.2059 12.5576 22.7533C12.6153 22.6802 12.6743 22.6067 12.8064 22.4439C13.6697 21.3801 13.9622 20.8995 14.1585 20.1729C14.3029 19.638 14.3319 19.0749 14.2612 18.3686C14.2369 18.1263 14.2096 17.9259 14.1368 17.4495L14.1177 17.3241C14.0109 16.6174 13.9981 16.2175 14.0496 16.1293C14.1091 16.0276 14.4692 15.8378 15.1946 15.5576L15.2951 15.5189C15.4211 15.4704 15.4717 15.4508 15.5367 15.4255C16.5875 15.0155 17.143 14.6996 17.6468 14.2008C18.1932 13.6598 18.4723 13.1608 18.9786 11.8724C19.2974 11.0608 19.4857 10.7028 19.5952 10.6401C19.6941 10.5835 20.1042 10.6018 20.9549 10.7295C22.3439 10.938 22.9258 10.9473 23.6803 10.7478C24.4175 10.5528 24.903 10.2613 26.0309 9.36428C26.1444 9.27409 26.2162 9.21766 26.287 9.16292C26.7442 8.80971 27.0541 8.63439 27.1689 8.63439C27.3151 8.63439 27.657 8.84748 28.3642 9.40995C29.4387 10.2645 29.924 10.5539 30.6574 10.748C31.1972 10.8907 31.7654 10.9194 32.4782 10.8494C32.723 10.8254 32.9254 10.7984 33.4071 10.7262L33.5338 10.7073C34.2483 10.6015 34.6527 10.5889 34.7428 10.6405C34.846 10.6995 35.0374 11.0553 35.3204 11.7734L35.3596 11.8729C35.8659 13.1617 36.1448 13.6604 36.6913 14.2014C37.2377 14.7423 37.7413 15.0184 39.0428 15.5195L39.143 15.5581C39.8686 15.8383 40.2287 16.0282 40.2882 16.13C40.345 16.2272 40.3256 16.6364 40.193 17.502C40.1272 17.932 40.1001 18.132 40.0761 18.3727C40.0058 19.0771 40.0349 19.6394 40.1791 20.1734C40.368 20.873 40.6791 21.3923 41.4553 22.3508L41.5313 22.4444C42.0987 23.1434 42.3141 23.482 42.3141 23.6252Z" fill="#424750"/>
<path fill-rule="evenodd" clip-rule="evenodd" d="M27.5063 34.425C33.3777 34.425 38.1375 29.7408 38.1375 23.9625C38.1375 18.1842 33.3777 13.5 27.5063 13.5C21.6348 13.5 16.875 18.1842 16.875 23.9625C16.875 29.7408 21.6348 34.425 27.5063 34.425ZM34.0442 17.725C33.6315 17.4276 33.0539 17.5184 32.754 17.9277L25.2686 28.1471L21.7478 25.3759C21.3483 25.0614 20.7673 25.1277 20.4502 25.5239C20.1331 25.9202 20.1999 26.4965 20.5995 26.811L24.8752 30.1764C25.2869 30.5004 25.8878 30.419 26.1966 29.9973L34.2486 19.0045C34.5484 18.5952 34.4569 18.0223 34.0442 17.725Z" fill="#E6123D"/>
<path d="M27.5063 12.825C27.8917 12.825 28.2042 13.1328 28.2042 13.5125C28.2042 13.8922 27.8917 14.2 27.5063 14.2C22.0329 14.2 17.5958 18.5708 17.5958 23.9625C17.5958 29.3542 22.0329 33.725 27.5063 33.725C32.9796 33.725 37.4167 29.3542 37.4167 23.9625C37.4167 23.5828 37.7291 23.275 38.1146 23.275C38.5 23.275 38.8125 23.5828 38.8125 23.9625C38.8125 30.1136 33.7505 35.1 27.5063 35.1C21.262 35.1 16.2 30.1136 16.2 23.9625C16.2 17.8114 21.262 12.825 27.5063 12.825Z" fill="#424750"/>
<path d="M35.5928 39.557C35.5928 39.1458 35.9358 38.8125 36.3589 38.8125C36.782 38.8125 37.125 39.1458 37.125 39.557V46.5052C37.125 46.9845 36.6658 47.3389 36.1854 47.2303L27.5734 45.284L18.8246 47.2309C18.3449 47.3376 17.8875 46.9835 17.8875 46.5052V41.873C17.8875 41.4619 18.2305 41.1286 18.6536 41.1286C19.0767 41.1286 19.4197 41.4619 19.4197 41.873V45.571L27.4038 43.7943C27.5172 43.7691 27.635 43.7693 27.7483 43.7949L35.5928 45.5678V39.557Z" fill="#19BFD3"/>
<path d="M18.7313 38.8125C18.5094 38.8125 18.2917 38.9028 18.1347 39.0597C17.9778 39.2167 17.8875 39.4343 17.8875 39.6571C17.8875 39.8782 17.9778 40.0958 18.1347 40.2536C18.2917 40.4106 18.5094 40.5 18.7313 40.5C18.9532 40.5 19.1709 40.4106 19.3278 40.2536C19.4847 40.0958 19.575 39.879 19.575 39.6571C19.575 39.4343 19.4847 39.2167 19.3278 39.0597C19.1709 38.9028 18.9532 38.8125 18.7313 38.8125Z" fill="#19BFD3"/>
<path d="M30.2062 12.825C29.9843 12.825 29.7666 12.9153 29.6097 13.0722C29.4528 13.2292 29.3625 13.4469 29.3625 13.6696C29.3625 13.8907 29.4528 14.1084 29.6097 14.2661C29.7666 14.4231 29.9843 14.5125 30.2062 14.5125C30.4281 14.5125 30.6458 14.4231 30.8028 14.2661C30.9597 14.1084 31.05 13.8915 31.05 13.6696C31.05 13.4469 30.9597 13.2292 30.8028 13.0722C30.6458 12.9153 30.4281 12.825 30.2062 12.825Z" fill="#424750"/>
</symbol>
<symbol id="icon-SpecialSell" viewBox="0 0 148 32">
<path fill="#e6123d" style="fill: var(--color3, #e6123d)" d="M19.192 6.355c-0.486 0-0.886-0.374-0.937-0.855l-0.006-0.104 0-4.437c0-0.495 0.367-0.902 0.84-0.954l0.103-0.006h2.64c0.486 0 0.886 0.374 0.937 0.855l0.006 0.105 0.001 1.252 3.036-0c0.486 0 0.885 0.374 0.937 0.855l0.005 0.105v2.225c0 0.494-0.367 0.902-0.839 0.954l-0.103 0.006h-6.619z"></path>
<path fill="#e6123d" style="fill: var(--color3, #e6123d)" d="M34.76 27.446c0.47 0 0.816 0.319 0.864 0.777l0.005 0.108v2.655c0 0.479-0.313 0.831-0.763 0.879l-0.106 0.005h-6.951c-0.47 0-0.816-0.318-0.863-0.777l-0.005-0.108v-2.655c0-0.479 0.313-0.831 0.763-0.879l0.106-0.006h6.951z"></path>
<path fill="#e6123d" style="fill: var(--color3, #e6123d)" d="M22.652 20.444v-8c0-0.491-0.389-0.889-0.869-0.889h-2.607c-0.48 0-0.869 0.398-0.869 0.889v10.667c0 2.544-1.857 4.444-4.344 4.444h-3.681c-0.782 0-0.933 0.717-0.434 1.333l1.859 2.429c0.329 0.43 0.834 0.682 1.369 0.682h0.888c4.982 0 8.689-3.792 8.689-8.889v-0.015l0.954 1.41c0.162 0.24 0.429 0.383 0.715 0.383h6.931c3.84 0 6.952-3.184 6.952-7.111v-5.333c0-0.491-0.389-0.889-0.869-0.889h-2.607c-0.48 0-0.869 0.398-0.869 0.889v5.333c0 1.473-1.167 2.667-2.607 2.667h-8.6z"></path>
<path fill="#e6123d" style="fill: var(--color3, #e6123d)" d="M83.502 6.355c-0.486 0-0.885-0.374-0.937-0.855l-0.005-0.104v-4.437c0-0.495 0.368-0.902 0.84-0.954l0.103-0.006h2.64c0.486 0 0.886 0.374 0.937 0.855l0.005 0.105 0.001 1.252 3.036-0c0.486 0 0.886 0.374 0.937 0.855l0.006 0.105v2.226c0 0.494-0.368 0.902-0.84 0.954l-0.103 0.006h-6.619z"></path>
<path fill="#e6123d" style="fill: var(--color3, #e6123d)" d="M141.214 0.777c-0.047-0.458-0.394-0.777-0.863-0.777h-3.041l-0.106 0.006c-0.45 0.048-0.763 0.401-0.763 0.879v2.654l0.006 0.108c0.047 0.458 0.393 0.777 0.863 0.777h3.041l0.106-0.006c0.45-0.048 0.763-0.401 0.763-0.879v-2.654l-0.005-0.108z"></path>
<path fill="#e6123d" style="fill: var(--color3, #e6123d)" d="M139.048 24.889h-11.31c-0.285 0-0.552-0.143-0.715-0.383l-0.954-1.41 0 0.015c0 5.097-3.707 8.889-8.689 8.889h-0.019c-0.534 0-1.039-0.252-1.368-0.682l-1.859-2.429c-0.498-0.616-0.348-1.333 0.434-1.333h2.812c2.487 0 4.344-1.9 4.344-4.444h-0.001v-10.667c0-0.491 0.389-0.889 0.869-0.889h2.607c0.48 0 0.869 0.398 0.869 0.889v8h6.532c-0.326-0.823-0.505-1.724-0.505-2.667v-2.667c0-3.927 3.113-7.111 6.952-7.111s6.952 3.184 6.952 7.111v2.667c0 3.927-3.113 7.111-6.952 7.111zM141.655 17.778v-2.667c0-1.473-1.167-2.667-2.607-2.667s-2.607 1.194-2.607 2.667v2.667c0 1.473 1.167 2.667 2.607 2.667s2.607-1.194 2.607-2.667z"></path>
<path fill="#e6123d" style="fill: var(--color3, #e6123d)" d="M1.374 12.444c-0.326 0.823-0.505 1.724-0.505 2.667v2.667c0 3.927 3.113 7.111 6.952 7.111s6.952-3.184 6.952-7.111v-2.667c0-3.927-3.113-7.111-6.952-7.111h-6.952c-0.48 0-0.869 0.398-0.869 0.889v2.667c0 0.491 0.389 0.889 0.869 0.889h0.505zM10.429 15.111v2.667c0 1.473-1.167 2.667-2.607 2.667s-2.607-1.194-2.607-2.667v-2.667c0-1.473 1.167-2.667 2.607-2.667s2.607 1.194 2.607 2.667z"></path>
<path fill="#e6123d" style="fill: var(--color3, #e6123d)" d="M105.151 32h-0.888c-0.534 0-1.039-0.252-1.369-0.682l-1.859-2.429c-0.498-0.616-0.348-1.333 0.434-1.333h3.681c2.028 0 3.637-1.264 4.162-3.109-0.754 0.286-1.569 0.443-2.421 0.443-3.84 0-6.952-3.184-6.952-7.111v-2.667c0-3.927 3.113-7.111 6.952-7.111s6.952 3.184 6.952 7.111v8h-0.005c0 5.097-3.707 8.889-8.689 8.889zM109.5 15.111c0-1.473-1.167-2.667-2.607-2.667s-2.607 1.194-2.607 2.667v2.667c0 1.473 1.167 2.667 2.607 2.667s2.607-1.194 2.607-2.667v-2.667z"></path>
<path fill="#e6123d" style="fill: var(--color3, #e6123d)" d="M54.745 23.111h0.005v-8c0-3.927-3.113-7.111-6.952-7.111s-6.952 3.184-6.952 7.111v2.667c0 3.927 3.113 7.111 6.952 7.111 0.851 0 1.667-0.157 2.42-0.443-0.525 1.846-2.134 3.109-4.162 3.109h-3.681c-0.782 0-0.933 0.717-0.434 1.333l1.859 2.429c0.329 0.43 0.834 0.682 1.369 0.682h0.888c4.982 0 8.689-3.792 8.689-8.889zM50.405 15.111v2.667c0 1.473-1.167 2.667-2.607 2.667s-2.607-1.194-2.607-2.667v-2.667c0-1.473 1.167-2.667 2.607-2.667s2.607 1.194 2.607 2.667z"></path>
<path fill="#e6123d" style="fill: var(--color3, #e6123d)" d="M87.902 23.182l0.896 1.324c0.162 0.24 0.429 0.383 0.714 0.383h0.836c3.84 0 6.952-3.184 6.952-7.111v-5.333c0-0.491-0.389-0.889-0.869-0.889h-2.607c-0.48 0-0.869 0.398-0.869 0.889v5.333c0 1.473-1.167 2.667-2.607 2.667h-0.518c0.326-0.823 0.505-1.724 0.505-2.667v-5.333c0-0.491-0.389-0.889-0.869-0.889h-2.607c-0.48 0-0.869 0.398-0.869 0.889v5.333c0 1.473-1.167 2.667-2.607 2.667h-2.505v-8c0-0.491-0.389-0.889-0.869-0.889h-2.607c-0.48 0-0.869 0.398-0.869 0.889v8h-0.057l0.057 0.084v2.583c0 2.544-1.857 4.444-4.344 4.444h-3.536c-2.487 0-4.344-1.9-4.344-4.444h0.001v-7.111c0-0.491-0.389-0.889-0.869-0.889h-2.607c-0.48 0-0.869 0.398-0.869 0.889v7.111c0 5.097 3.706 8.889 8.689 8.889h3.536c4.383 0 7.779-2.935 8.532-7.111h2.661c1.725 0 3.304-0.643 4.519-1.707z"></path>
</symbol>
<symbol id="icon-lock" viewBox="0 0 32 32">
<path d="M25 13v-4c0-4.971-4.029-9-9-9s-9 4.029-9 9v4c-1.657 0-3 1.343-3 3v7c0 4.971 4.029 9 9 9h6c4.971 0 9-4.029 9-9v-7c0-1.658-1.344-3-3-3zM9 9c0-3.866 3.134-7 7-7s7 3.134 7 7v4h-2v-3.998c0-2.762-2.238-5-5-5s-5 2.238-5 5v3.998h-2v-4zM20 9v4h-8v-4c0-2.209 1.791-4 4-4s4 1.791 4 4zM26 19v4c0 3.859-3.141 7-7 7h-6c-3.859 0-7-3.141-7-7v-7c0-0.552 0.448-1 1-1 0.667 0 1.333 0 2 0h14c0.666 0 1.332 0 2 0 0.551 0 1 0.448 1 1v3zM16 19c1.104 0 2 0.895 2 2 0 0.609-0.328 1.768-0.666 2.682-0.273 0.738-0.552 1.316-1.334 1.316-0.719 0-1.061-0.584-1.333-1.326-0.334-0.912-0.667-2.065-0.667-2.672 0-1.105 0.896-2 2-2z"></path>
</symbol>
<symbol id="icon-truck" viewBox="0 0 32 32">
<path d="M24.832 11.445c-0.186-0.278-0.498-0.445-0.832-0.445h-1c-0.553 0-1 0.447-1 1v6c0 0.553 0.447 1 1 1h4c0.553 0 1-0.447 1-1v-1.5c0-0.197-0.059-0.391-0.168-0.555l-3-4.5zM27 18h-4v-6h1l3 4.5v1.5zM31.496 15.336l-4-6c-0.558-0.837-1.492-1.336-2.496-1.336h-4v-2c0-1.654-1.346-3-3-3h-15c-1.654 0-3 1.346-3 3v11c0 1.654 1.346 3 3 3v0 3c0 1.654 1.346 3 3 3h1.142c0.447 1.721 2 3 3.859 3 1.857 0 3.41-1.279 3.857-3h5.282c0.447 1.721 2 3 3.859 3 1.857 0 3.41-1.279 3.857-3h1.144c1.654 0 3-1.346 3-3v-6c0-0.594-0.174-1.17-0.504-1.664zM3 18c-0.552 0-1-0.447-1-1v-11c0-0.553 0.448-1 1-1h15c0.553 0 1 0.447 1 1v11c0 0.553-0.447 1-1 1h-15zM11.001 27c-1.105 0-2-0.896-2-2s0.895-2 2-2c1.104 0 2 0.896 2 2s-0.897 2-2 2zM24 27c-1.105 0-2-0.896-2-2s0.895-2 2-2c1.104 0 2 0.896 2 2s-0.896 2-2 2zM30 23c0 0.553-0.447 1-1 1h-1.143c-0.447-1.721-2-3-3.857-3-1.859 0-3.412 1.279-3.859 3h-5.282c-0.447-1.721-2-3-3.857-3-1.859 0-3.412 1.279-3.859 3h-1.143c-0.552 0-1-0.447-1-1v-3h13c1.654 0 3-1.346 3-3v-7h4c0.334 0 0.646 0.167 0.832 0.445l4 6c0.109 0.164 0.168 0.358 0.168 0.555v6z"></path>
</symbol>
<symbol id="icon-shopping-bag" viewBox="0 0 24 24">
<path d="M19 5h-14l1.5-2h11zM21.794 5.392l-2.994-3.992c-0.196-0.261-0.494-0.399-0.8-0.4h-12c-0.326 0-0.616 0.156-0.8 0.4l-2.994 3.992c-0.043 0.056-0.081 0.117-0.111 0.182-0.065 0.137-0.096 0.283-0.095 0.426v14c0 0.828 0.337 1.58 0.879 2.121s1.293 0.879 2.121 0.879h14c0.828 0 1.58-0.337 2.121-0.879s0.879-1.293 0.879-2.121v-14c0-0.219-0.071-0.422-0.189-0.585-0.004-0.005-0.007-0.010-0.011-0.015zM4 7h16v13c0 0.276-0.111 0.525-0.293 0.707s-0.431 0.293-0.707 0.293h-14c-0.276 0-0.525-0.111-0.707-0.293s-0.293-0.431-0.293-0.707zM15 10c0 0.829-0.335 1.577-0.879 2.121s-1.292 0.879-2.121 0.879-1.577-0.335-2.121-0.879-0.879-1.292-0.879-2.121c0-0.552-0.448-1-1-1s-1 0.448-1 1c0 1.38 0.561 2.632 1.464 3.536s2.156 1.464 3.536 1.464 2.632-0.561 3.536-1.464 1.464-2.156 1.464-3.536c0-0.552-0.448-1-1-1s-1 0.448-1 1z"></path>
</symbol>
<symbol id="icon-support" viewBox="0 0 56 56">
<path fill-rule="evenodd" clip-rule="evenodd" d="M39.4945 36.3848C42.2968 36.3848 44.5685 34.1131 44.5685 31.3108C44.5685 28.5082 42.2968 26.2365 39.4945 26.2365V36.3848Z" fill="#E6123D"/>
<path fill-rule="evenodd" clip-rule="evenodd" d="M40.3013 35.5014V27.1196C42.27 27.498 43.7621 29.2334 43.7621 31.3107C43.7621 33.388 42.27 35.1234 40.3013 35.5014ZM40.707 11.4181C37.6968 8.40795 33.71 6.74982 29.4811 6.74982C25.2522 6.74982 21.2653 8.40795 18.2548 11.4181C17.1104 12.5629 16.1613 13.8485 15.4245 15.2349C14.951 16.5289 16.4796 16.8448 16.8505 15.9845C19.2477 11.4559 24.0102 8.3634 29.4811 8.3634C37.3556 8.3634 43.7621 14.7698 43.7621 22.6444V27.2705C42.6895 26.1382 41.1738 25.4298 39.4947 25.4298C39.0489 25.4298 38.6877 25.7909 38.6877 26.2364V36.3847C38.6877 36.8305 39.0489 37.1916 39.4947 37.1916C42.707 37.1916 45.3247 34.602 45.3733 31.4008C45.3736 31.391 45.3746 28.472 45.3753 22.6444C45.3753 18.4155 43.7175 14.4286 40.707 11.4181Z" fill="#424750"/>
<path fill-rule="evenodd" clip-rule="evenodd" d="M43.9048 36.3035C43.7002 36.3035 43.4994 36.3869 43.3546 36.5313C43.2099 36.6761 43.1268 36.8769 43.1268 37.0825C43.1268 37.2863 43.2099 37.4868 43.3546 37.6326C43.4994 37.7771 43.7002 37.8597 43.9048 37.8597C44.1093 37.8597 44.3101 37.7771 44.4549 37.6326C44.5997 37.4868 44.6827 37.287 44.6827 37.0825C44.6827 36.8769 44.5997 36.6761 44.4549 36.5313C44.3101 36.3869 44.1093 36.3035 43.9048 36.3035Z" fill="#424750"/>
<path fill-rule="evenodd" clip-rule="evenodd" d="M32.2522 44.0203L33.397 43.777L33.6404 44.9218L32.4956 45.1651L32.2522 44.0203ZM43.463 38.8393C43.0772 38.6166 42.5834 38.7486 42.3607 39.1343C40.795 41.8448 38.3343 43.7091 35.2138 44.563L34.8078 42.6524C34.7149 42.2164 34.2867 41.9383 33.8506 42.0307L31.1277 42.6096C30.6916 42.7024 30.4135 43.1307 30.5063 43.5667L31.0851 46.2897C31.1776 46.7257 31.6059 47.0038 32.0419 46.9113L34.7652 46.3325C38.7184 45.4922 41.8281 43.2822 43.7579 39.9416C43.981 39.5559 43.8487 39.0624 43.463 38.8393Z" fill="#424750"/>
<path fill-rule="evenodd" clip-rule="evenodd" d="M11.8471 37.4615C10.3344 37.4615 9.10831 36.2353 9.10831 34.7226V20.3607C9.10831 18.848 10.3344 17.6219 11.8471 17.6219H31.576C33.0887 17.6219 34.3148 18.848 34.3148 20.3607V38.4132C34.3148 39.3758 33.5345 40.1561 32.572 40.1561C32.0468 40.1561 31.5497 39.9195 31.2189 39.5118L29.5547 37.4615H11.8471ZM11.8471 19.1156C11.1596 19.1156 10.6021 19.6732 10.6021 20.3607V34.7226C10.6021 35.4101 11.1596 35.9677 11.8471 35.9677H30.2662L32.3786 38.5701C32.4258 38.6285 32.4971 38.6623 32.572 38.6623C32.7097 38.6623 32.8211 38.5509 32.8211 38.4132V20.3607C32.8211 19.6732 32.2635 19.1156 31.576 19.1156H11.8471Z" fill="#19BFD3"/>
<path fill-rule="evenodd" clip-rule="evenodd" d="M26.2996 26.7646H31.3213V28.0711L28.6885 34.5808H27.0661L29.6217 28.2385H26.2996V26.7646ZM24.3202 26.6252V28.0545H23.4869V29.3833H21.9425V28.0545H18.2651V26.6252L20.9435 21.4109H22.5878L19.9206 26.6252H21.9425V24.7717H23.4869V26.6252H24.3202ZM12.2347 29.3833V28.2331L14.8898 25.4865C15.39 24.9617 15.7788 24.448 15.7788 23.9232C15.7788 23.2978 15.3565 22.907 14.7676 22.907C14.1679 22.907 13.7234 23.2644 13.4679 23.8226L12.179 23.0633C12.6792 21.9468 13.69 21.4109 14.7457 21.4109C16.0788 21.4109 17.312 22.3039 17.312 23.8672C17.312 24.8162 16.7676 25.6316 16.0342 26.3684L14.5121 27.8983H17.4342V29.3833H12.2347Z" fill="#424750"/>
<path fill-rule="evenodd" clip-rule="evenodd" d="M28.0015 21.6874L21.0642 34.5809H21.7365L28.6691 21.6874H28.0015Z" fill="#E6123D"/>
<symbol id="icon-exit" viewBox="0 0 32 32">
<path d="M24 20v-4h-10v-4h10v-4l6 6zM22 18v8h-10v6l-12-6v-26h22v10h-2v-8h-16l8 4v18h8v-6z"></path>
</symbol>
<symbol id="icon-keyboard_arrow_left" viewBox="0 0 24 24">
<path d="M15.422 16.594l-1.406 1.406-6-6 6-6 1.406 1.406-4.594 4.594z"></path>
</symbol>
<symbol id="icon-keyboard_arrow_right" viewBox="0 0 24 24">
<path d="M8.578 16.594l4.594-4.594-4.594-4.594 1.406-1.406 6 6-6 6z"></path>
</symbol>
<symbol id="icon-keyboard_arrow_down" viewBox="0 0 24 24">
<path d="M7.406 8.578l4.594 4.594 4.594-4.594 1.406 1.406-6 6-6-6z"></path>
</symbol>
<symbol id="icon-compare" viewBox="0 0 24 24">
<path d="M18.984 3q0.797 0 1.406 0.609t0.609 1.406v13.969q0 0.797-0.609 1.406t-1.406 0.609h-4.969v-9l4.969 6v-12.984h-4.969v-2.016h4.969zM9.984 18v-6l-4.969 6h4.969zM9.984 3v-2.016h2.016v22.031h-2.016v-2.016h-4.969q-0.797 0-1.406-0.609t-0.609-1.406v-13.969q0-0.797 0.609-1.406t1.406-0.609h4.969z"></path>
</symbol>
<symbol id="icon-bell-o" viewBox="0 0 28 28">
<path d="M14.25 26.5c0-0.141-0.109-0.25-0.25-0.25-1.234 0-2.25-1.016-2.25-2.25 0-0.141-0.109-0.25-0.25-0.25s-0.25 0.109-0.25 0.25c0 1.516 1.234 2.75 2.75 2.75 0.141 0 0.25-0.109 0.25-0.25zM3.844 22h20.312c-2.797-3.156-4.156-7.438-4.156-13 0-2.016-1.906-5-6-5s-6 2.984-6 5c0 5.563-1.359 9.844-4.156 13zM27 22c0 1.094-0.906 2-2 2h-7c0 2.203-1.797 4-4 4s-4-1.797-4-4h-7c-1.094 0-2-0.906-2-2 2.312-1.953 5-5.453 5-13 0-3 2.484-6.281 6.625-6.891-0.078-0.187-0.125-0.391-0.125-0.609 0-0.828 0.672-1.5 1.5-1.5s1.5 0.672 1.5 1.5c0 0.219-0.047 0.422-0.125 0.609 4.141 0.609 6.625 3.891 6.625 6.891 0 7.547 2.688 11.047 5 13z"></path>
</symbol>
<symbol id="icon-heart-o" viewBox="0 0 28 28">
<path d="M26 9.312c0-4.391-2.969-5.313-5.469-5.313-2.328 0-4.953 2.516-5.766 3.484-0.375 0.453-1.156 0.453-1.531 0-0.812-0.969-3.437-3.484-5.766-3.484-2.5 0-5.469 0.922-5.469 5.313 0 2.859 2.891 5.516 2.922 5.547l9.078 8.75 9.063-8.734c0.047-0.047 2.938-2.703 2.938-5.563zM28 9.312c0 3.75-3.437 6.891-3.578 7.031l-9.734 9.375c-0.187 0.187-0.438 0.281-0.688 0.281s-0.5-0.094-0.688-0.281l-9.75-9.406c-0.125-0.109-3.563-3.25-3.563-7 0-4.578 2.797-7.313 7.469-7.313 2.734 0 5.297 2.156 6.531 3.375 1.234-1.219 3.797-3.375 6.531-3.375 4.672 0 7.469 2.734 7.469 7.313z"></path>
</symbol>
<symbol id="icon-discout" viewBox="0 0 32 32">
<path d="M31.062 16c0 2.125-1.227 3.927-3.050 4.642v2.33c0 0.55-0.446 0.996-0.995 0.996h-23.033c-0.551 0-0.996-0.446-0.996-0.996v-2.33c-1.824-0.715-3.050-2.517-3.050-4.642s1.227-3.927 3.051-4.642v-2.33c0-0.551 0.445-0.996 0.996-0.996h23.033c0.549 0 0.995 0.445 0.995 0.996v2.33c1.823 0.715 3.049 2.517 3.049 4.642zM11.952 16h-3.984v0.996h3.984v-0.996zM16.682 12.604c-0.281-0.309-0.667-0.463-1.157-0.463-0.487 0-0.871 0.154-1.151 0.463-0.281 0.308-0.422 0.782-0.422 1.422 0 0.643 0.141 1.118 0.422 1.427 0.28 0.308 0.481 0.462 0.979 0.462 0.48 0 1.049-0.154 1.33-0.462 0.28-0.309 0.421-0.784 0.421-1.427-0.001-0.64-0.142-1.115-0.422-1.422zM20.070 11.985l-5.11 8.022h1.012l5.085-8.022h-0.987zM21.661 16.587c-0.28-0.308-0.667-0.462-1.157-0.462-0.486 0-0.871 0.154-1.152 0.462-0.28 0.309-0.42 0.782-0.42 1.422 0 0.643 0.14 1.119 0.42 1.427 0.281 0.309 0.67 0.463 1.168 0.463 0.48 0 0.861-0.154 1.142-0.463 0.28-0.308 0.421-0.784 0.421-1.427-0.001-0.64-0.142-1.113-0.422-1.422zM20.495 19.128c-0.144 0-0.256-0.061-0.337-0.181-0.107-0.157-0.161-0.469-0.161-0.936s0.054-0.78 0.161-0.94c0.078-0.117 0.19-0.177 0.337-0.177s0.261 0.060 0.342 0.177c0.104 0.16 0.156 0.474 0.156 0.94s-0.054 0.78-0.161 0.94c-0.078 0.118-0.19 0.177-0.337 0.177zM15.516 15.145c-0.144 0-0.256-0.061-0.337-0.182-0.107-0.157-0.161-0.469-0.161-0.936s0.054-0.78 0.161-0.94c0.078-0.117 0.19-0.176 0.337-0.176s0.26 0.059 0.342 0.176c0.104 0.16 0.156 0.474 0.156 0.94s-0.054 0.78-0.161 0.94c-0.079 0.118-0.191 0.178-0.337 0.178z"></path>
</symbol>
<symbol id="icon-location1" viewBox="0 0 32 32">
<path d="M16.002 17.746c3.309 0 6-2.692 6-6s-2.691-6-6-6c-3.309 0-6 2.691-6 6s2.691 6 6 6zM16.002 6.746c2.758 0 5 2.242 5 5s-2.242 5-5 5c-2.758 0-5-2.242-5-5s2.242-5 5-5zM16 0c-6.618 0-12 5.316-12 12.001 0 7 6.001 14.161 10.376 19.194 0.016 0.020 0.718 0.805 1.586 0.805 0.002 0 0.073 0 0.077 0 0.867 0 1.57-0.785 1.586-0.805 4.377-5.033 10.377-12.193 10.377-19.194 0-6.685-5.383-12.001-12.002-12.001zM16.117 29.883c-0.021 0.020-0.082 0.064-0.135 0.098-0.010-0.027-0.084-0.086-0.129-0.133-3.665-4.217-9.853-11.334-9.853-17.847 0-5.514 4.487-10.001 10-10.001 5.516 0 10.002 4.487 10.002 10.002 0 6.512-6.188 13.629-9.885 17.881z"></path>
</symbol>
<symbol id="icon-like" viewBox="0 0 32 32">
<path d="M29.164 10.472c-1.25-0.328-4.189-0.324-8.488-0.438 0.203-0.938 0.25-1.784 0.25-3.286 0-3.588-2.614-6.748-4.926-6.748-1.633 0-2.979 1.335-3 2.977-0.022 2.014-0.645 5.492-4 7.256-0.246 0.13-0.95 0.477-1.053 0.522l0.053 0.045c-0.525-0.453-1.253-0.8-2-0.8h-3c-1.654 0-3 1.346-3 3v16c0 1.654 1.346 3 3 3h3c1.19 0 2.186-0.719 2.668-1.727 0.012 0.004 0.033 0.010 0.047 0.012 0.066 0.018 0.144 0.037 0.239 0.062 0.018 0.005 0.027 0.007 0.046 0.012 0.576 0.143 1.685 0.408 4.055 0.953 0.508 0.116 3.192 0.688 5.972 0.688h5.467c1.666 0 2.867-0.641 3.582-1.928 0.010-0.020 0.24-0.469 0.428-1.076 0.141-0.457 0.193-1.104 0.023-1.76 1.074-0.738 1.42-1.854 1.645-2.58 0.377-1.191 0.264-2.086 0.002-2.727 0.604-0.57 1.119-1.439 1.336-2.766 0.135-0.822-0.010-1.668-0.389-2.372 0.566-0.636 0.824-1.436 0.854-2.176l0.012-0.209c0.007-0.131 0.013-0.212 0.013-0.5 0-1.263-0.875-2.874-2.836-3.434zM7 29c0 0.553-0.447 1-1 1h-3c-0.553 0-1-0.447-1-1v-16c0-0.553 0.447-1 1-1h3c0.553 0 1 0.447 1 1v16zM29.977 14.535c-0.020 0.494-0.227 1.465-1.977 1.465-1.5 0-2 0-2 0-0.277 0-0.5 0.224-0.5 0.5s0.223 0.5 0.5 0.5c0 0 0.438 0 1.938 0s1.697 1.244 1.6 1.844c-0.124 0.746-0.474 2.156-2.163 2.156-1.687 0-2.375 0-2.375 0-0.277 0-0.5 0.223-0.5 0.5 0 0.275 0.223 0.5 0.5 0.5 0 0 1.188 0 1.969 0 1.688 0 1.539 1.287 1.297 2.055-0.319 1.009-0.514 1.945-2.641 1.945-0.719 0-1.631 0-1.631 0-0.277 0-0.5 0.223-0.5 0.5 0 0.275 0.223 0.5 0.5 0.5 0 0 0.693 0 1.568 0 1.094 0 1.145 1.035 1.031 1.406-0.125 0.406-0.273 0.707-0.279 0.721-0.302 0.545-0.789 0.873-1.82 0.873h-5.467c-2.746 0-5.47-0.623-5.54-0.639-4.154-0.957-4.373-1.031-4.634-1.105 0 0-0.846-0.143-0.846-0.881l-0.007-13.812c0-0.469 0.299-0.893 0.794-1.042 0.062-0.024 0.146-0.050 0.206-0.075 4.568-1.892 5.959-6.040 6-9.446 0.006-0.479 0.375-1 1-1 1.057 0 2.926 2.122 2.926 4.748 0 2.371-0.096 2.781-0.926 5.252 10 0 9.93 0.144 10.812 0.375 1.094 0.313 1.188 1.219 1.188 1.531 0 0.343-0.010 0.293-0.023 0.629zM4.5 26c-0.828 0-1.5 0.672-1.5 1.5s0.672 1.5 1.5 1.5 1.5-0.672 1.5-1.5-0.672-1.5-1.5-1.5zM4.5 28c-0.275 0-0.5-0.225-0.5-0.5s0.225-0.5 0.5-0.5 0.5 0.225 0.5 0.5-0.225 0.5-0.5 0.5z"></path>
</symbol>
<symbol id="icon-shop" viewBox="0 0 32 32">
<path d="M31.4 11.2l-3-3.998c-0.117-0.157-0.256-0.293-0.4-0.423v-4.779c0-1.104-0.896-2-2-2h-20c-1.105 0-2 0.896-2 2v4.78c-0.144 0.129-0.283 0.264-0.4 0.42l-2.999 3.999c-0.388 0.516-0.601 1.155-0.601 1.801v1c0 1.654 1.346 3 3 3v0 13c0 1.104 0.896 2 2 2h22c1.104 0 2-0.896 2-2v-13c1.654 0 3-1.346 3-3v-1c0-0.646-0.213-1.285-0.6-1.8zM26 2v4h-20v-4h20zM10.193 15h-4.189l4-7h2.189l-2 7zM13.234 8h2.266v7h-4.266l2-7zM16.5 8h2.266l2 7h-4.266v-7zM19.805 8h2.189l4 7h-4.189l-2-7zM2 14v-1c0-0.217 0.070-0.427 0.2-0.6l3-4c0.189-0.252 0.485-0.4 0.8-0.4h2.852l-4 7h-1.852c-0.552 0-1-0.447-1-1zM20 30h-7.5v-10h7.5v10zM27 30h-6v-10c0-0.553-0.449-1-1-1h-7.5c-0.552 0-1 0.447-1 1v10h-6.5v-13h22v13zM30 14c0 0.553-0.447 1-1 1h-1.854l-4-7h2.854c0.314 0 0.611 0.148 0.799 0.4l3 4c0.131 0.173 0.201 0.383 0.201 0.6v1z"></path>
</symbol>
</defs>
</svg>
